<?xml version="1.0" encoding="UTF-8" standalone="no"?>
<!-- Created with Inkscape (http://www.inkscape.org/) -->

<svg
   width="210mm"
   height="297mm"
   viewBox="0 0 210 297"
   version="1.1"
   id="svg9944"
   inkscape:export-filename="nccs-logo-blue3.png"
   inkscape:export-xdpi="96"
   inkscape:export-ydpi="96"
   inkscape:version="1.2.2 (732a01da63, 2022-12-09)"
   sodipodi:docname="logo.svg"
   xmlns:inkscape="http://www.inkscape.org/namespaces/inkscape"
   xmlns:sodipodi="http://sodipodi.sourceforge.net/DTD/sodipodi-0.dtd"
   xmlns="http://www.w3.org/2000/svg"
   xmlns:svg="http://www.w3.org/2000/svg">
  <sodipodi:namedview
     id="namedview9946"
     pagecolor="#ffffff"
     bordercolor="#000000"
     borderopacity="0.25"
     inkscape:showpageshadow="2"
     inkscape:pageopacity="0.0"
     inkscape:pagecheckerboard="0"
     inkscape:deskcolor="#d1d1d1"
     inkscape:document-units="mm"
     showgrid="false"
     inkscape:zoom="2.0737236"
     inkscape:cx="464.62315"
     inkscape:cy="839.55258"
     inkscape:window-width="1920"
     inkscape:window-height="1009"
     inkscape:window-x="-8"
     inkscape:window-y="-8"
     inkscape:window-maximized="1"
     inkscape:current-layer="layer1" />
  <defs
     id="defs9941" />
  <g
     inkscape:label="Layer 1"
     inkscape:groupmode="layer"
     id="layer1">
    <rect
       style="fill:none;fill-opacity:0.937255;stroke-width:0.269438"
       id="rect11502"
       width="59.201077"
       height="64.304619"
       x="125.03675"
       y="98.561272" />
    <path
       fill="#99adb7"
       d="m 140.09145,141.39936 c 0,0.70326 -0.57018,1.27343 -1.27344,1.27343 h -6.155 c -0.70326,0 -1.27344,-0.57017 -1.27344,-1.27343 v -26.24694 c 0,-0.70352 0.57018,-1.27344 1.27344,-1.27344 h 6.155 c 0.70353,0 1.27344,0.57018 1.27344,1.27344 z"
       id="path490"
       style="fill:#a2d4ec;fill-opacity:1;stroke-width:0.264583" />
    <path
       fill="#4c7189"
       d="m 152.54327,140.86675 c 0,0.99748 -0.56991,1.80604 -1.27344,1.80604 h -6.15527 c -0.70326,0 -1.27344,-0.80856 -1.27344,-1.80604 v -31.69073 c 0,-0.99748 0.57018,-1.80605 1.27344,-1.80605 h 6.15527 c 0.70326,0 1.27344,0.80857 1.27344,1.80605 z"
       id="path492"
       style="fill:#1696d2;fill-opacity:1;stroke-width:0.264583" />
    <path
       fill="#99adb7"
       d="m 164.99483,141.39936 c 0,0.70326 -0.57018,1.27343 -1.27344,1.27343 h -6.15527 c -0.70326,0 -1.27344,-0.57017 -1.27344,-1.27343 v -29.57222 c 0,-0.70326 0.56991,-1.27344 1.27344,-1.27344 h 6.15527 c 0.70326,0 1.27344,0.57018 1.27344,1.27344 z"
       id="path494"
       style="fill:#a2d4ec;fill-opacity:1;stroke-width:0.264583" />
    <path
       fill="#4c7189"
       d="m 177.44665,141.39936 c 0,0.70326 -0.56992,1.27343 -1.27344,1.27343 h -6.15527 c -0.70326,0 -1.27344,-0.57017 -1.27344,-1.27343 v -40.27885 c 0,-0.70326 0.57018,-1.273437 1.27344,-1.273437 h 6.15527 c 0.70326,0 1.27344,0.570177 1.27344,1.273437 z"
       id="path496"
       style="fill:#1696d2;fill-opacity:1;stroke-width:0.264583" />
    <path
       fill="#99adb7"
       d="m 141.571,128.68269 h -1.71979 c -2.7e-4,0.57732 -0.11589,1.11839 -0.32517,1.61369 -0.31354,0.74189 -0.84164,1.37848 -1.50443,1.82589 -0.66384,0.44741 -1.45256,0.70644 -2.31722,0.70723 -0.57732,-2.6e-4 -1.11839,-0.11589 -1.61369,-0.32517 -0.74216,-0.31353 -1.37874,-0.84164 -1.82615,-1.50442 -0.44741,-0.66384 -0.70644,-1.45256 -0.70724,-2.31722 2.7e-4,-0.57732 0.11589,-1.1184 0.32518,-1.6137 0.31353,-0.74215 0.84164,-1.37874 1.50442,-1.82615 0.66384,-0.44741 1.45256,-0.70644 2.31748,-0.70723 0.57732,2.6e-4 1.1184,0.11589 1.6137,0.32517 0.74189,0.31353 1.37848,0.84164 1.82589,1.50442 0.44741,0.66384 0.70643,1.45256 0.70723,2.31749 h 1.71979 1.71979 c 8e-4,-2.08942 -0.85196,-3.99706 -2.22197,-5.36443 -1.36737,-1.37028 -3.27501,-2.22303 -5.36443,-2.22197 -2.08941,-7.9e-4 -3.99706,0.85169 -5.36442,2.22197 -1.37028,1.36737 -2.22277,3.27501 -2.22197,5.36443 -8e-4,2.08941 0.85169,3.99679 2.22197,5.36442 1.36736,1.37002 3.27474,2.22277 5.36442,2.22197 2.08942,8e-4 3.9968,-0.85195 5.36443,-2.22197 1.37001,-1.36736 2.22277,-3.27501 2.22197,-5.36442 z"
       id="path572"
       style="fill:#1696d2;fill-opacity:1;stroke-width:0.264583" />
    <circle
       fill="#f5f5f5"
       cx="135.70439"
       cy="128.68283"
       r="5.8666062"
       id="circle574"
       style="stroke-width:0.264583" />
    <path
       fill="#4c7189"
       d="m 154.0596,121.39447 h -1.71979 c -2.7e-4,0.57733 -0.11589,1.1184 -0.32518,1.6137 -0.31353,0.74189 -0.84164,1.37848 -1.50442,1.82589 -0.66384,0.44741 -1.45256,0.70644 -2.31748,0.70723 -0.57732,-2.7e-4 -1.1184,-0.11589 -1.6137,-0.32517 -0.74215,-0.31354 -1.37874,-0.84164 -1.82615,-1.50442 -0.44741,-0.66411 -0.70644,-1.45257 -0.70723,-2.31749 2.6e-4,-0.57732 0.11589,-1.11839 0.32517,-1.61369 0.31353,-0.74216 0.84164,-1.37875 1.50442,-1.82616 0.66384,-0.44741 1.45256,-0.70644 2.31749,-0.70723 0.57732,2.7e-4 1.11866,0.11589 1.61369,0.32517 0.74189,0.31353 1.37848,0.84164 1.82589,1.50442 0.44741,0.66384 0.70644,1.45257 0.70723,2.31749 h 1.72006 1.71979 c 7.9e-4,-2.08941 -0.85169,-3.99706 -2.22197,-5.36443 -1.36737,-1.37027 -3.27501,-2.22303 -5.36443,-2.22197 -2.08941,-7.9e-4 -3.99706,0.8517 -5.36443,2.22197 -1.37027,1.36737 -2.22276,3.27502 -2.22197,5.36443 -7.9e-4,2.08941 0.8517,3.99706 2.22197,5.36443 1.36737,1.37001 3.27502,2.22276 5.36443,2.22197 2.08942,7.9e-4 3.99706,-0.8517 5.36443,-2.22197 1.37028,-1.36737 2.22276,-3.27475 2.22197,-5.36443 h -1.71979 z"
       id="path576"
       style="fill:#a2d4ec;fill-opacity:1;stroke-width:0.264583" />
    <circle
       fill="#f5f5f5"
       cx="148.19299"
       cy="121.39455"
       r="5.8666062"
       id="circle578"
       style="stroke-width:0.264583" />
    <path
       fill="#99adb7"
       d="m 166.96253,123.76064 h -1.71979 c -2.6e-4,0.57732 -0.11589,1.1184 -0.32517,1.6137 -0.31353,0.74189 -0.84164,1.37848 -1.50442,1.82589 -0.66411,0.44741 -1.45257,0.70643 -2.31749,0.70723 -0.57732,-2.7e-4 -1.11866,-0.11589 -1.61369,-0.32518 -0.74216,-0.31353 -1.37875,-0.84163 -1.82616,-1.50442 -0.44741,-0.66384 -0.70643,-1.45256 -0.70723,-2.31722 2.7e-4,-0.57732 0.11589,-1.11839 0.32518,-1.61369 0.31353,-0.74189 0.84164,-1.37848 1.50442,-1.82615 0.6641,-0.44742 1.45256,-0.70644 2.31748,-0.70724 0.57732,2.7e-4 1.11866,0.11589 1.6137,0.32518 0.74215,0.31353 1.37874,0.84164 1.82615,1.50442 0.44715,0.66384 0.70644,1.45256 0.70723,2.31722 h 1.71979 1.71979 c 8e-4,-2.08942 -0.85195,-3.99706 -2.22197,-5.36443 -1.36763,-1.37028 -3.27501,-2.22276 -5.36442,-2.22197 -2.08942,-7.9e-4 -3.99706,0.85169 -5.36443,2.22197 -1.37028,1.36737 -2.22303,3.27501 -2.22197,5.36443 -7.9e-4,2.08941 0.85196,3.99679 2.22197,5.36443 1.36737,1.37027 3.27501,2.22276 5.36443,2.22197 2.08941,7.9e-4 3.99679,-0.8517 5.36442,-2.22197 1.37028,-1.36737 2.22277,-3.27475 2.22197,-5.36443 h -1.71979 z"
       id="path580"
       style="fill:#1696d2;fill-opacity:1;stroke-width:0.264583" />
    <circle
       fill="#f5f5f5"
       cx="161.09567"
       cy="123.76074"
       r="5.8668709"
       id="circle582"
       style="stroke-width:0.264583" />
    <path
       fill="#4c7189"
       d="m 179.7218,116.90608 h -1.71979 c -2.7e-4,0.57732 -0.11589,1.1184 -0.32518,1.6137 -0.31353,0.74189 -0.84163,1.37848 -1.50442,1.82615 -0.6641,0.44741 -1.45256,0.70644 -2.31748,0.70723 -0.57732,-2.6e-4 -1.1184,-0.11589 -1.61343,-0.32517 -0.74216,-0.31353 -1.37848,-0.84164 -1.82589,-1.50442 -0.44715,-0.66384 -0.70644,-1.45256 -0.70723,-2.31749 2.6e-4,-0.57732 0.11589,-1.11839 0.32517,-1.61369 0.31353,-0.74189 0.84164,-1.37848 1.50442,-1.82589 0.66411,-0.44741 1.4523,-0.70644 2.31722,-0.70723 0.57732,2.6e-4 1.11866,0.11589 1.6137,0.32517 0.74215,0.31353 1.37874,0.84164 1.82615,1.50442 0.44715,0.66384 0.70644,1.45256 0.70723,2.31722 h 1.71953 1.71979 c 7.9e-4,-2.08941 -0.85196,-3.99679 -2.22197,-5.36442 -1.36763,-1.37028 -3.27501,-2.22277 -5.36443,-2.22198 -2.08941,-7.9e-4 -3.99679,0.85196 -5.36416,2.22198 -1.37001,1.36736 -2.2225,3.27474 -2.22171,5.36416 -7.9e-4,2.08941 0.85196,3.99679 2.22171,5.36443 1.36737,1.37027 3.27475,2.22302 5.36416,2.22197 2.08942,7.9e-4 3.9968,-0.8517 5.36443,-2.22197 1.37028,-1.36737 2.22276,-3.27502 2.22197,-5.36443 h -1.71979 z"
       id="path584"
       style="fill:#a2d4ec;fill-opacity:1;stroke-width:0.264583" />
    <circle
       fill="#f5f5f5"
       cx="173.85519"
       cy="116.90614"
       r="5.8666062"
       id="circle586"
       style="stroke-width:0.264583" />
    <polyline
       fill="#f5f5f5"
       points="421.82,219.106 473.968,182.973 469.058,175.885 416.909,212.019  "
       id="polyline588"
       transform="matrix(0.26458333,0,0,0.26458333,25.120733,72.191541)" />
    <polygon
       fill="#f5f5f5"
       points="477.586,178.177 474.473,186.218 522.738,202.837 580.6,159.354 575.122,152.694 521.152,192.977 "
       id="polygon590"
       transform="matrix(0.26458333,0,0,0.26458333,25.120733,72.191541)" />
    <polygon
       fill="#4c7189"
       points="423.936,201.412 429.114,201.412 429.114,224.067 424.81,224.067 413.514,210.312 413.514,224.067 408.336,224.067 408.336,201.412 412.673,201.412 423.936,215.167 "
       id="polygon592"
       transform="matrix(0.26458333,0,0,0.26458333,25.120733,72.191541)"
       style="fill:#5c5759;fill-opacity:0.937255" />
    <path
       fill="#99adb7"
       d="m 145.30639,121.5146 c 0,-1.80684 1.38721,-3.09986 3.25384,-3.09986 1.03611,0 1.90103,0.37676 2.46618,1.06177 l -0.89058,0.82206 c -0.40243,-0.46249 -0.90779,-0.7022 -1.50707,-0.7022 -1.12183,0 -1.91823,0.78793 -1.91823,1.91823 0,1.13003 0.7964,1.91796 1.91823,1.91796 0.59955,0 1.10464,-0.23971 1.50707,-0.71067 l 0.89058,0.82179 c -0.56515,0.69348 -1.43007,1.07051 -2.47464,1.07051 -1.85817,2.6e-4 -3.24538,-1.29302 -3.24538,-3.09959 z"
       id="path594"
       style="fill:#5c5759;fill-opacity:0.937255;stroke-width:0.264583" />
    <path
       fill="#4c7189"
       d="m 158.21991,123.86912 c 0,-1.80684 1.38721,-3.09986 3.25384,-3.09986 1.03611,0 1.9013,0.37677 2.46618,1.06178 l -0.89058,0.82206 c -0.40244,-0.46249 -0.90753,-0.70221 -1.50681,-0.70221 -1.12183,0 -1.91823,0.78793 -1.91823,1.91823 0,1.13004 0.7964,1.91797 1.91823,1.91797 0.59955,0 1.10437,-0.23972 1.50681,-0.71067 l 0.89058,0.82179 c -0.56515,0.69374 -1.43007,1.07051 -2.47465,1.07051 -1.85816,2.6e-4 -3.24537,-1.29276 -3.24537,-3.0996 z"
       id="path596"
       style="fill:#5c5759;fill-opacity:0.937255;stroke-width:0.264583" />
    <path
       fill="#99adb7"
       d="m 171.5684,119.17197 0.47096,-1.04457 c 0.50509,0.3683 1.25889,0.62495 1.97802,0.62495 0.8218,0 1.15597,-0.27385 1.15597,-0.64215 0,-1.12183 -3.48509,-0.3511 -3.48509,-2.5773 0,-1.01918 0.82179,-1.8669 2.52624,-1.8669 0.75353,0 1.524,0.17991 2.08042,0.53101 l -0.42784,1.05305 c -0.55668,-0.31671 -1.1303,-0.47096 -1.66131,-0.47096 -0.82206,0 -1.13904,0.30824 -1.13904,0.685 0,1.1049 3.48536,0.34264 3.48536,2.54318 0,1.00198 -0.83079,1.85817 -2.54317,1.85817 -0.95039,5.3e-4 -1.9095,-0.28231 -2.44052,-0.69348 z"
       id="path598"
       style="fill:#5c5759;fill-opacity:0.937255;stroke-width:0.264583" />
    <text
       xml:space="preserve"
       style="font-style:normal;font-variant:normal;font-weight:normal;font-stretch:normal;font-size:14.1111px;font-family:'Century Gothic';-inkscape-font-specification:'Century Gothic';fill:#12719e;fill-opacity:0.937255;stroke-width:0.264583"
       x="130.2403"
       y="154.5844"
       id="text6981"><tspan
         sodipodi:role="line"
         id="tspan6979"
         style="font-style:normal;font-variant:normal;font-weight:normal;font-stretch:normal;font-size:14.1111px;font-family:'Century Gothic';-inkscape-font-specification:'Century Gothic';fill:#12719e;fill-opacity:0.937255;stroke-width:0.264583"
         x="130.2403"
         y="154.5844">@urban</tspan></text>
    <text
       xml:space="preserve"
       style="font-style:normal;font-variant:normal;font-weight:normal;font-stretch:normal;font-size:13.6037px;font-family:'Century Gothic';-inkscape-font-specification:'Century Gothic';fill:#12719e;fill-opacity:0.937255;stroke-width:0.255076"
       x="29.46887"
       y="131.22304"
       id="text6981-96"
       transform="scale(0.96406116,1.0372786)"><tspan
         sodipodi:role="line"
         id="tspan6979-4"
         style="font-style:normal;font-variant:normal;font-weight:normal;font-stretch:normal;font-size:13.6037px;font-family:'Century Gothic';-inkscape-font-specification:'Century Gothic';fill:#12719e;fill-opacity:0.937255;stroke-width:0.255076"
         x="29.46887"
         y="131.22304">@urban</tspan></text>
    <text
       xml:space="preserve"
       style="font-style:normal;font-variant:normal;font-weight:normal;font-stretch:normal;font-size:10.5833px;font-family:'Century Gothic';-inkscape-font-specification:'Century Gothic';fill:#1696d2;fill-opacity:1;stroke-width:0.255076"
       x="112.94237"
       y="275.6286"
       id="text6981-96-0"
       transform="scale(0.96406116,1.0372786)"><tspan
         sodipodi:role="line"
         id="tspan6979-4-3"
         style="font-style:normal;font-variant:normal;font-weight:normal;font-stretch:normal;font-size:10.5833px;font-family:'Century Gothic';-inkscape-font-specification:'Century Gothic';fill:#1696d2;fill-opacity:1;stroke-width:0.255076"
         x="112.94237"
         y="275.6286">@<tspan
   style="font-style:normal;font-variant:normal;font-weight:bold;font-stretch:normal;font-size:10.5833px;font-family:sans-serif;-inkscape-font-specification:'sans-serif Bold'"
   id="tspan3239">URBAN</tspan></tspan></text>
    <rect
       style="fill:none;fill-opacity:0.937255;stroke-width:0.297633"
       id="rect11502-4"
       width="59.201077"
       height="78.466942"
       x="125.31737"
       y="2.0029621"
       inkscape:export-filename="nccs-logo-blue3.png"
       inkscape:export-xdpi="96"
       inkscape:export-ydpi="96" />
    <path
       fill="#99adb7"
       d="m 140.37205,53.836913 c 0,0.70326 -0.57017,1.27343 -1.27344,1.27343 h -6.155 c -0.70326,0 -1.27344,-0.57017 -1.27344,-1.27343 v -26.24694 c 0,-0.70352 0.57018,-1.27344 1.27344,-1.27344 h 6.155 c 0.70353,0 1.27344,0.57018 1.27344,1.27344 z"
       id="path490-4"
       style="fill:#a2d4ec;fill-opacity:1;stroke-width:0.264583" />
    <path
       fill="#4c7189"
       d="m 152.82387,53.304303 c 0,0.99748 -0.56991,1.80604 -1.27344,1.80604 h -6.15526 c -0.70326,0 -1.27344,-0.80856 -1.27344,-1.80604 v -31.69073 c 0,-0.99748 0.57018,-1.80605 1.27344,-1.80605 h 6.15526 c 0.70327,0 1.27344,0.80857 1.27344,1.80605 z"
       id="path492-8"
       style="fill:#1696d2;fill-opacity:1;stroke-width:0.264583" />
    <path
       fill="#99adb7"
       d="m 165.27543,53.836913 c 0,0.70326 -0.57018,1.27343 -1.27344,1.27343 h -6.15527 c -0.70326,0 -1.27344,-0.57017 -1.27344,-1.27343 v -29.57222 c 0,-0.70326 0.56992,-1.27344 1.27344,-1.27344 h 6.15527 c 0.70326,0 1.27344,0.57018 1.27344,1.27344 z"
       id="path494-9"
       style="fill:#a2d4ec;fill-opacity:1;stroke-width:0.264583" />
    <path
       fill="#4c7189"
       d="m 177.72725,53.836913 c 0,0.70326 -0.56991,1.27343 -1.27344,1.27343 h -6.15526 c -0.70327,0 -1.27344,-0.57017 -1.27344,-1.27343 v -40.27885 c 0,-0.70326 0.57017,-1.27344 1.27344,-1.27344 h 6.15526 c 0.70326,0 1.27344,0.57018 1.27344,1.27344 z"
       id="path496-4"
       style="fill:#1696d2;fill-opacity:1;stroke-width:0.264583" />
    <path
       fill="#99adb7"
       d="m 141.8516,41.120243 h -1.71979 c -2.6e-4,0.57732 -0.11589,1.11839 -0.32517,1.61369 -0.31353,0.74189 -0.84164,1.37848 -1.50442,1.82589 -0.66384,0.44741 -1.45256,0.70644 -2.31722,0.70723 -0.57732,-2.6e-4 -1.1184,-0.11589 -1.6137,-0.32517 -0.74215,-0.31353 -1.37874,-0.84164 -1.82615,-1.50442 -0.44741,-0.66384 -0.70644,-1.45256 -0.70723,-2.31722 2.6e-4,-0.57732 0.11589,-1.1184 0.32517,-1.6137 0.31353,-0.74215 0.84164,-1.37874 1.50442,-1.82615 0.66384,-0.44741 1.45256,-0.70644 2.31749,-0.70723 0.57732,2.6e-4 1.11839,0.11589 1.61369,0.32517 0.74189,0.31353 1.37848,0.84164 1.82589,1.50442 0.44741,0.66384 0.70644,1.45256 0.70723,2.31749 h 1.71979 1.7198 c 7.9e-4,-2.08942 -0.85196,-3.99706 -2.22198,-5.36443 -1.36736,-1.37028 -3.27501,-2.22303 -5.36442,-2.22197 -2.08942,-7.9e-4 -3.99706,0.85169 -5.36443,2.22197 -1.37028,1.36737 -2.22276,3.27501 -2.22197,5.36443 -7.9e-4,2.08941 0.85169,3.99679 2.22197,5.36442 1.36737,1.37002 3.27475,2.22277 5.36443,2.22197 2.08941,8e-4 3.99679,-0.85195 5.36442,-2.22197 1.37002,-1.36736 2.22277,-3.27501 2.22198,-5.36442 z"
       id="path572-4"
       style="fill:#1696d2;fill-opacity:1;stroke-width:0.264583" />
    <circle
       fill="#f5f5f5"
       cx="135.985"
       cy="41.120239"
       r="5.8666062"
       id="circle574-3"
       style="stroke-width:0.264583" />
    <path
       fill="#4c7189"
       d="m 154.3402,33.832023 h -1.71979 c -2.6e-4,0.57733 -0.11589,1.1184 -0.32517,1.6137 -0.31353,0.74189 -0.84164,1.37848 -1.50442,1.82589 -0.66384,0.44741 -1.45257,0.70644 -2.31749,0.70723 -0.57732,-2.7e-4 -1.11839,-0.11589 -1.61369,-0.32517 -0.74216,-0.31354 -1.37875,-0.84164 -1.82616,-1.50442 -0.44741,-0.66411 -0.70643,-1.45257 -0.70723,-2.31749 2.7e-4,-0.57732 0.11589,-1.11839 0.32517,-1.61369 0.31354,-0.74216 0.84164,-1.37875 1.50443,-1.82616 0.66383,-0.44741 1.45256,-0.70644 2.31748,-0.70723 0.57732,2.7e-4 1.11866,0.11589 1.61369,0.32517 0.7419,0.31353 1.37848,0.84164 1.82589,1.50442 0.44741,0.66384 0.70644,1.45257 0.70724,2.31749 h 1.72005 1.71979 c 8e-4,-2.08941 -0.85169,-3.99706 -2.22197,-5.36443 -1.36736,-1.37027 -3.27501,-2.22303 -5.36442,-2.22197 -2.08942,-7.9e-4 -3.99707,0.8517 -5.36443,2.22197 -1.37028,1.36737 -2.22277,3.27502 -2.22197,5.36443 -8e-4,2.08941 0.85169,3.99706 2.22197,5.36443 1.36736,1.37001 3.27501,2.22276 5.36443,2.22197 2.08941,7.9e-4 3.99706,-0.8517 5.36442,-2.22197 1.37028,-1.36737 2.22277,-3.27475 2.22197,-5.36443 h -1.71979 z"
       id="path576-5"
       style="fill:#a2d4ec;fill-opacity:1;stroke-width:0.264583" />
    <circle
       fill="#f5f5f5"
       cx="148.47359"
       cy="33.832031"
       r="5.8666062"
       id="circle578-6"
       style="stroke-width:0.264583" />
    <path
       fill="#99adb7"
       d="m 167.24314,36.198193 h -1.71979 c -2.7e-4,0.57732 -0.11589,1.1184 -0.32518,1.6137 -0.31353,0.74189 -0.84164,1.37848 -1.50442,1.82589 -0.6641,0.44741 -1.45256,0.70643 -2.31748,0.70723 -0.57732,-2.7e-4 -1.11866,-0.11589 -1.6137,-0.32518 -0.74215,-0.31353 -1.37874,-0.84163 -1.82615,-1.50442 -0.44741,-0.66384 -0.70644,-1.45256 -0.70723,-2.31722 2.6e-4,-0.57732 0.11588,-1.11839 0.32517,-1.61369 0.31353,-0.74189 0.84164,-1.37848 1.50442,-1.82615 0.6641,-0.44742 1.45256,-0.70644 2.31749,-0.70724 0.57732,2.7e-4 1.11865,0.11589 1.61369,0.32518 0.74216,0.31353 1.37874,0.84164 1.82615,1.50442 0.44715,0.66384 0.70644,1.45256 0.70724,2.31722 h 1.71979 1.71979 c 7.9e-4,-2.08942 -0.85196,-3.99706 -2.22197,-5.36443 -1.36763,-1.37028 -3.27501,-2.22276 -5.36443,-2.22197 -2.08941,-7.9e-4 -3.99706,0.85169 -5.36443,2.22197 -1.37027,1.36737 -2.22303,3.27501 -2.22197,5.36443 -7.9e-4,2.08941 0.85196,3.99679 2.22197,5.36443 1.36737,1.37027 3.27502,2.22276 5.36443,2.22197 2.08942,7.9e-4 3.9968,-0.8517 5.36443,-2.22197 1.37027,-1.36737 2.22276,-3.27475 2.22197,-5.36443 h -1.71979 z"
       id="path580-4"
       style="fill:#1696d2;fill-opacity:1;stroke-width:0.264583" />
    <circle
       fill="#f5f5f5"
       cx="161.37627"
       cy="36.198196"
       r="5.8668709"
       id="circle582-3"
       style="stroke-width:0.264583" />
    <path
       fill="#4c7189"
       d="m 180.0024,29.343633 h -1.71979 c -2.6e-4,0.57732 -0.11589,1.1184 -0.32517,1.6137 -0.31353,0.74189 -0.84164,1.37848 -1.50442,1.82615 -0.66411,0.44741 -1.45256,0.70644 -2.31749,0.70723 -0.57732,-2.6e-4 -1.11839,-0.11589 -1.61343,-0.32517 -0.74215,-0.31353 -1.37848,-0.84164 -1.82589,-1.50442 -0.44714,-0.66384 -0.70643,-1.45256 -0.70723,-2.31749 2.7e-4,-0.57732 0.11589,-1.11839 0.32518,-1.61369 0.31353,-0.74189 0.84164,-1.37848 1.50442,-1.82589 0.6641,-0.44741 1.45229,-0.70644 2.31722,-0.70723 0.57732,2.6e-4 1.11866,0.11589 1.61369,0.32517 0.74216,0.31353 1.37874,0.84164 1.82616,1.50442 0.44714,0.66384 0.70643,1.45256 0.70723,2.31722 h 1.71952 1.71979 c 8e-4,-2.08941 -0.85195,-3.99679 -2.22197,-5.36442 -1.36763,-1.37028 -3.27501,-2.22277 -5.36442,-2.22198 -2.08942,-7.9e-4 -3.9968,0.85196 -5.36417,2.22198 -1.37001,1.36736 -2.2225,3.27474 -2.2217,5.36416 -8e-4,2.08941 0.85196,3.99679 2.2217,5.36443 1.36737,1.37027 3.27475,2.22302 5.36417,2.22197 2.08941,7.9e-4 3.99679,-0.8517 5.36442,-2.22197 1.37028,-1.36737 2.22277,-3.27502 2.22197,-5.36443 h -1.71979 z"
       id="path584-4"
       style="fill:#a2d4ec;fill-opacity:1;stroke-width:0.264583" />
    <circle
       fill="#f5f5f5"
       cx="174.13579"
       cy="29.343643"
       r="5.8666062"
       id="circle586-9"
       style="stroke-width:0.264583" />
    <polyline
       fill="#f5f5f5"
       points="421.82,219.106 473.968,182.973 469.058,175.885 416.909,212.019  "
       id="polyline588-2"
       transform="matrix(0.26458333,0,0,0.26458333,25.401338,-15.370949)" />
    <polygon
       fill="#f5f5f5"
       points="580.6,159.354 575.122,152.694 521.152,192.977 477.586,178.177 474.473,186.218 522.738,202.837 "
       id="polygon590-2"
       transform="matrix(0.26458333,0,0,0.26458333,25.401338,-15.370949)" />
    <polygon
       fill="#4c7189"
       points="429.114,201.412 429.114,224.067 424.81,224.067 413.514,210.312 413.514,224.067 408.336,224.067 408.336,201.412 412.673,201.412 423.936,215.167 423.936,201.412 "
       id="polygon592-1"
       transform="matrix(0.26458333,0,0,0.26458333,25.401338,-15.370949)"
       style="fill:#12719e;fill-opacity:1" />
    <path
       fill="#99adb7"
       d="m 145.58699,33.952153 c 0,-1.80684 1.38721,-3.09986 3.25385,-3.09986 1.03611,0 1.90103,0.37676 2.46618,1.06177 l -0.89059,0.82206 c -0.40243,-0.46249 -0.90778,-0.7022 -1.50707,-0.7022 -1.12183,0 -1.91823,0.78793 -1.91823,1.91823 0,1.13003 0.7964,1.91796 1.91823,1.91796 0.59955,0 1.10464,-0.23971 1.50707,-0.71067 l 0.89059,0.82179 c -0.56515,0.69348 -1.43007,1.07051 -2.47465,1.07051 -1.85817,2.6e-4 -3.24538,-1.29302 -3.24538,-3.09959 z"
       id="path594-7"
       style="fill:#12719e;fill-opacity:1;stroke-width:0.264583" />
    <path
       fill="#4c7189"
       d="m 158.50051,36.306673 c 0,-1.80684 1.38721,-3.09986 3.25385,-3.09986 1.0361,0 1.90129,0.37677 2.46618,1.06178 l -0.89059,0.82206 c -0.40243,-0.46249 -0.90752,-0.70221 -1.5068,-0.70221 -1.12184,0 -1.91823,0.78793 -1.91823,1.91823 0,1.13004 0.79639,1.91797 1.91823,1.91797 0.59954,0 1.10437,-0.23972 1.5068,-0.71067 l 0.89059,0.82179 c -0.56515,0.69374 -1.43008,1.07051 -2.47465,1.07051 -1.85817,2.6e-4 -3.24538,-1.29276 -3.24538,-3.0996 z"
       id="path596-4"
       style="fill:#12719e;fill-opacity:1;stroke-width:0.264583" />
    <path
       fill="#99adb7"
       d="m 171.849,31.609523 0.47096,-1.04457 c 0.50509,0.3683 1.25889,0.62495 1.97803,0.62495 0.82179,0 1.15596,-0.27385 1.15596,-0.64215 0,-1.12183 -3.48509,-0.3511 -3.48509,-2.5773 0,-1.01918 0.8218,-1.8669 2.52624,-1.8669 0.75353,0 1.524,0.17991 2.08042,0.53101 l -0.42783,1.05305 c -0.55668,-0.31671 -1.1303,-0.47096 -1.66132,-0.47096 -0.82206,0 -1.13903,0.30824 -1.13903,0.685 0,1.1049 3.48536,0.34264 3.48536,2.54318 0,1.00198 -0.8308,1.85817 -2.54318,1.85817 -0.95038,5.3e-4 -1.9095,-0.28231 -2.44052,-0.69348 z"
       id="path598-6"
       style="fill:#12719e;fill-opacity:1;stroke-width:0.264583" />
    <text
       xml:space="preserve"
       style="font-style:normal;font-variant:normal;font-weight:normal;font-stretch:normal;font-size:14.1111px;line-height:0;font-family:'Century Gothic';-inkscape-font-specification:'Century Gothic';fill:#12719e;fill-opacity:1;stroke-width:0.264583"
       x="154.97095"
       y="64.936615"
       id="text6981-9"><tspan
         sodipodi:role="line"
         style="font-style:normal;font-variant:normal;font-weight:normal;font-stretch:normal;font-size:11.2889px;line-height:1.25;font-family:Bahnschrift;-inkscape-font-specification:Bahnschrift;text-align:center;letter-spacing:0.529167px;word-spacing:0.00529167px;text-anchor:middle;fill:#12719e;fill-opacity:1;stroke-width:0.264583"
         x="155.23553"
         y="64.936615"
         id="tspan14495">research</tspan></text>
    <text
       xml:space="preserve"
       style="font-style:normal;font-variant:normal;font-weight:normal;font-stretch:normal;font-size:14.1111px;line-height:0;font-family:'Century Gothic';-inkscape-font-specification:'Century Gothic';fill:#12719e;fill-opacity:1;stroke-width:0.264583"
       x="154.4453"
       y="76.295975"
       id="text6981-9-2"><tspan
         sodipodi:role="line"
         style="font-style:normal;font-variant:normal;font-weight:normal;font-stretch:normal;font-size:14.1111px;line-height:0.7;font-family:'Bauhaus 93';-inkscape-font-specification:'Bauhaus 93, ';text-align:center;letter-spacing:2.38125px;word-spacing:0.00529167px;text-anchor:middle;fill:#12719e;fill-opacity:1;stroke-width:0.264583"
         x="155.63593"
         y="76.295975"
         id="tspan14495-2"
         dy="0.059999999"
         dx="0.050000001">GUIDE</tspan></text>
    <rect
       style="fill:none;fill-opacity:0.937255;stroke-width:0.283507"
       id="rect11502-4-3"
       width="53.714771"
       height="78.466942"
       x="23.900251"
       y="211.57455"
       inkscape:export-filename="nccs-logo-blue6.png"
       inkscape:export-xdpi="96"
       inkscape:export-ydpi="96" />
    <text
       xml:space="preserve"
       style="font-style:normal;font-variant:normal;font-weight:normal;font-stretch:normal;font-size:14.1111px;line-height:0;font-family:'Century Gothic';-inkscape-font-specification:'Century Gothic';fill:#0a4c6a;fill-opacity:1;stroke-width:0.264583"
       x="49.853779"
       y="265.51236"
       id="text6981-9-29"><tspan
         sodipodi:role="line"
         style="font-style:normal;font-variant:normal;font-weight:normal;font-stretch:normal;font-size:11.2889px;line-height:1.25;font-family:Bahnschrift;-inkscape-font-specification:Bahnschrift;text-align:center;letter-spacing:0.529167px;word-spacing:0.00529167px;text-anchor:middle;fill:#0a4c6a;fill-opacity:1;stroke-width:0.264583"
         x="50.118366"
         y="265.51236"
         id="tspan14495-26">research</tspan></text>
    <text
       xml:space="preserve"
       style="font-style:normal;font-variant:normal;font-weight:normal;font-stretch:normal;font-size:14.1111px;line-height:0;font-family:'Century Gothic';-inkscape-font-specification:'Century Gothic';fill:#0a4c6a;fill-opacity:1;stroke-width:0.264583"
       x="49.328129"
       y="276.87173"
       id="text6981-9-2-0"><tspan
         sodipodi:role="line"
         style="font-style:normal;font-variant:normal;font-weight:normal;font-stretch:normal;font-size:14.1111px;line-height:0.7;font-family:'Bauhaus 93';-inkscape-font-specification:'Bauhaus 93, ';text-align:center;letter-spacing:2.38125px;word-spacing:0.00529167px;text-anchor:middle;fill:#0a4c6a;fill-opacity:1;stroke-width:0.264583"
         x="50.518757"
         y="276.87173"
         id="tspan14495-2-3"
         dy="0.059999999"
         dx="0.050000001">GUIDE</tspan></text>
    <rect
       style="fill:none;fill-opacity:0.937255;stroke-width:0.260191"
       id="rect11502-4-1"
       width="59.201077"
       height="59.966606"
       x="124.01604"
       y="215.42657"
       inkscape:export-filename="..\..\..\..\..\Downloads\test\img\urban-logo-nccs.png"
       inkscape:export-xdpi="96"
       inkscape:export-ydpi="96" />
    <path
       fill="#99adb7"
       d="m 139.07074,239.76455 c 0,0.70326 -0.57017,1.27343 -1.27344,1.27343 h -6.155 c -0.70326,0 -1.27344,-0.57017 -1.27344,-1.27343 v -26.24694 c 0,-0.70352 0.57018,-1.27344 1.27344,-1.27344 h 6.155 c 0.70353,0 1.27344,0.57018 1.27344,1.27344 z"
       id="path490-4-6"
       style="fill:#0a4c6a;fill-opacity:1;stroke-width:0.264583" />
    <path
       fill="#4c7189"
       d="m 151.52256,239.23194 c 0,0.99748 -0.56991,1.80604 -1.27344,1.80604 h -6.15526 c -0.70326,0 -1.27344,-0.80856 -1.27344,-1.80604 v -31.69073 c 0,-0.99748 0.57018,-1.80605 1.27344,-1.80605 h 6.15526 c 0.70327,0 1.27344,0.80857 1.27344,1.80605 z"
       id="path492-8-0"
       style="fill:#0a4c6a;fill-opacity:1;stroke-width:0.264583" />
    <path
       fill="#99adb7"
       d="m 163.97412,239.76455 c 0,0.70326 -0.57018,1.27343 -1.27344,1.27343 h -6.15527 c -0.70326,0 -1.27344,-0.57017 -1.27344,-1.27343 v -29.57222 c 0,-0.70326 0.56992,-1.27344 1.27344,-1.27344 h 6.15527 c 0.70326,0 1.27344,0.57018 1.27344,1.27344 z"
       id="path494-9-9"
       style="fill:#0a4c6a;fill-opacity:1;stroke-width:0.264583" />
    <path
       fill="#4c7189"
       d="m 176.42594,239.76455 c 0,0.70326 -0.56991,1.27343 -1.27344,1.27343 h -6.15526 c -0.70327,0 -1.27344,-0.57017 -1.27344,-1.27343 V 199.4857 c 0,-0.70326 0.57017,-1.27344 1.27344,-1.27344 h 6.15526 c 0.70326,0 1.27344,0.57018 1.27344,1.27344 z"
       id="path496-4-4"
       style="fill:#0a4c6a;fill-opacity:1;stroke-width:0.264583" />
    <path
       fill="#99adb7"
       d="m 140.55029,227.04788 h -1.71979 c -2.6e-4,0.57732 -0.11589,1.11839 -0.32517,1.61369 -0.31353,0.74189 -0.84164,1.37848 -1.50442,1.82589 -0.66384,0.44741 -1.45256,0.70644 -2.31722,0.70723 -0.57732,-2.6e-4 -1.1184,-0.11589 -1.6137,-0.32517 -0.74215,-0.31353 -1.37874,-0.84164 -1.82615,-1.50442 -0.44741,-0.66384 -0.70644,-1.45256 -0.70723,-2.31722 2.6e-4,-0.57732 0.11589,-1.1184 0.32517,-1.6137 0.31353,-0.74215 0.84164,-1.37874 1.50442,-1.82615 0.66384,-0.44741 1.45256,-0.70644 2.31749,-0.70723 0.57732,2.6e-4 1.11839,0.11589 1.61369,0.32517 0.74189,0.31353 1.37848,0.84164 1.82589,1.50442 0.44741,0.66384 0.70644,1.45256 0.70723,2.31749 h 1.71979 1.7198 c 7.9e-4,-2.08942 -0.85196,-3.99706 -2.22198,-5.36443 -1.36736,-1.37028 -3.27501,-2.22303 -5.36442,-2.22197 -2.08942,-7.9e-4 -3.99706,0.85169 -5.36443,2.22197 -1.37028,1.36737 -2.22276,3.27501 -2.22197,5.36443 -7.9e-4,2.08941 0.85169,3.99679 2.22197,5.36442 1.36737,1.37002 3.27475,2.22277 5.36443,2.22197 2.08941,8e-4 3.99679,-0.85195 5.36442,-2.22197 1.37002,-1.36736 2.22277,-3.27501 2.22198,-5.36442 z"
       id="path572-4-4"
       style="fill:#1696d2;fill-opacity:1;stroke-width:0.264583" />
    <circle
       fill="#f5f5f5"
       cx="134.68369"
       cy="227.04768"
       r="5.8666062"
       id="circle574-3-1"
       style="stroke-width:0.264583" />
    <path
       fill="#4c7189"
       d="m 153.03889,219.75966 h -1.71979 c -2.6e-4,0.57733 -0.11589,1.1184 -0.32517,1.6137 -0.31353,0.74189 -0.84164,1.37848 -1.50442,1.82589 -0.66384,0.44741 -1.45257,0.70644 -2.31749,0.70723 -0.57732,-2.7e-4 -1.11839,-0.11589 -1.61369,-0.32517 -0.74216,-0.31354 -1.37875,-0.84164 -1.82616,-1.50442 -0.44741,-0.66411 -0.70643,-1.45257 -0.70723,-2.31749 2.7e-4,-0.57732 0.11589,-1.11839 0.32517,-1.61369 0.31354,-0.74216 0.84164,-1.37875 1.50443,-1.82616 0.66383,-0.44741 1.45256,-0.70644 2.31748,-0.70723 0.57732,2.7e-4 1.11866,0.11589 1.61369,0.32517 0.7419,0.31353 1.37848,0.84164 1.82589,1.50442 0.44741,0.66384 0.70644,1.45257 0.70724,2.31749 h 1.72005 1.71979 c 8e-4,-2.08941 -0.85169,-3.99706 -2.22197,-5.36443 -1.36736,-1.37027 -3.27501,-2.22303 -5.36442,-2.22197 -2.08942,-7.9e-4 -3.99707,0.8517 -5.36443,2.22197 -1.37028,1.36737 -2.22277,3.27502 -2.22197,5.36443 -8e-4,2.08941 0.85169,3.99706 2.22197,5.36443 1.36736,1.37001 3.27501,2.22276 5.36443,2.22197 2.08941,7.9e-4 3.99706,-0.8517 5.36442,-2.22197 1.37028,-1.36737 2.22277,-3.27475 2.22197,-5.36443 h -1.71979 z"
       id="path576-5-9"
       style="fill:#1696d2;fill-opacity:1;stroke-width:0.264583" />
    <circle
       fill="#f5f5f5"
       cx="147.17227"
       cy="219.75948"
       r="5.8666062"
       id="circle578-6-2"
       style="stroke-width:0.264583" />
    <path
       fill="#99adb7"
       d="m 165.94183,222.12583 h -1.71979 c -2.7e-4,0.57732 -0.11589,1.1184 -0.32518,1.6137 -0.31353,0.74189 -0.84164,1.37848 -1.50442,1.82589 -0.6641,0.44741 -1.45256,0.70643 -2.31748,0.70723 -0.57732,-2.7e-4 -1.11866,-0.11589 -1.6137,-0.32518 -0.74215,-0.31353 -1.37874,-0.84163 -1.82615,-1.50442 -0.44741,-0.66384 -0.70644,-1.45256 -0.70723,-2.31722 2.6e-4,-0.57732 0.11588,-1.11839 0.32517,-1.61369 0.31353,-0.74189 0.84164,-1.37848 1.50442,-1.82615 0.6641,-0.44742 1.45256,-0.70644 2.31749,-0.70724 0.57732,2.7e-4 1.11865,0.11589 1.61369,0.32518 0.74216,0.31353 1.37874,0.84164 1.82615,1.50442 0.44715,0.66384 0.70644,1.45256 0.70724,2.31722 h 1.71979 1.71979 c 7.9e-4,-2.08942 -0.85196,-3.99706 -2.22197,-5.36443 -1.36763,-1.37028 -3.27501,-2.22276 -5.36443,-2.22197 -2.08941,-7.9e-4 -3.99706,0.85169 -5.36443,2.22197 -1.37027,1.36737 -2.22303,3.27501 -2.22197,5.36443 -7.9e-4,2.08941 0.85196,3.99679 2.22197,5.36443 1.36737,1.37027 3.27502,2.22276 5.36443,2.22197 2.08942,7.9e-4 3.9968,-0.8517 5.36443,-2.22197 1.37027,-1.36737 2.22276,-3.27475 2.22197,-5.36443 h -1.71979 z"
       id="path580-4-2"
       style="fill:#1696d2;fill-opacity:1;stroke-width:0.264583" />
    <circle
       fill="#f5f5f5"
       cx="160.07495"
       cy="222.12564"
       r="5.8668709"
       id="circle582-3-3"
       style="stroke-width:0.264583" />
    <path
       fill="#4c7189"
       d="m 178.70109,215.27127 h -1.71979 c -2.6e-4,0.57732 -0.11589,1.1184 -0.32517,1.6137 -0.31353,0.74189 -0.84164,1.37848 -1.50442,1.82615 -0.66411,0.44741 -1.45256,0.70644 -2.31749,0.70723 -0.57732,-2.6e-4 -1.11839,-0.11589 -1.61343,-0.32517 -0.74215,-0.31353 -1.37848,-0.84164 -1.82589,-1.50442 -0.44714,-0.66384 -0.70643,-1.45256 -0.70723,-2.31749 2.7e-4,-0.57732 0.11589,-1.11839 0.32518,-1.61369 0.31353,-0.74189 0.84164,-1.37848 1.50442,-1.82589 0.6641,-0.44741 1.45229,-0.70644 2.31722,-0.70723 0.57732,2.6e-4 1.11866,0.11589 1.61369,0.32517 0.74216,0.31353 1.37874,0.84164 1.82616,1.50442 0.44714,0.66384 0.70643,1.45256 0.70723,2.31722 h 1.71952 1.71979 c 8e-4,-2.08941 -0.85195,-3.99679 -2.22197,-5.36442 -1.36763,-1.37028 -3.27501,-2.22277 -5.36442,-2.22198 -2.08942,-7.9e-4 -3.9968,0.85196 -5.36417,2.22198 -1.37001,1.36736 -2.2225,3.27474 -2.2217,5.36416 -8e-4,2.08941 0.85196,3.99679 2.2217,5.36443 1.36737,1.37027 3.27475,2.22302 5.36417,2.22197 2.08941,7.9e-4 3.99679,-0.8517 5.36442,-2.22197 1.37028,-1.36737 2.22277,-3.27502 2.22197,-5.36443 h -1.71979 z"
       id="path584-4-9"
       style="fill:#1696d2;fill-opacity:1;stroke-width:0.264583" />
    <circle
       fill="#f5f5f5"
       cx="172.83447"
       cy="215.27109"
       r="5.8666062"
       id="circle586-9-0"
       style="stroke-width:0.264583" />
    <polyline
       fill="#f5f5f5"
       points="421.82,219.106 473.968,182.973 469.058,175.885 416.909,212.019  "
       id="polyline588-2-6"
       transform="matrix(0.26458333,0,0,0.26458333,24.10002,170.55668)" />
    <polygon
       fill="#f5f5f5"
       points="575.122,152.694 521.152,192.977 477.586,178.177 474.473,186.218 522.738,202.837 580.6,159.354 "
       id="polygon590-2-5"
       transform="matrix(0.26458333,0,0,0.26458333,24.10002,170.55668)" />
    <polygon
       fill="#4c7189"
       points="408.336,224.067 408.336,201.412 412.673,201.412 423.936,215.167 423.936,201.412 429.114,201.412 429.114,224.067 424.81,224.067 413.514,210.312 413.514,224.067 "
       id="polygon592-1-8"
       transform="matrix(0.26458333,0,0,0.26458333,24.10002,170.55668)"
       style="fill:#1696d2;fill-opacity:1" />
    <path
       fill="#99adb7"
       d="m 144.28568,219.87979 c 0,-1.80684 1.38721,-3.09986 3.25385,-3.09986 1.03611,0 1.90103,0.37676 2.46618,1.06177 l -0.89059,0.82206 c -0.40243,-0.46249 -0.90778,-0.7022 -1.50707,-0.7022 -1.12183,0 -1.91823,0.78793 -1.91823,1.91823 0,1.13003 0.7964,1.91796 1.91823,1.91796 0.59955,0 1.10464,-0.23971 1.50707,-0.71067 l 0.89059,0.82179 c -0.56515,0.69348 -1.43007,1.07051 -2.47465,1.07051 -1.85817,2.6e-4 -3.24538,-1.29302 -3.24538,-3.09959 z"
       id="path594-7-4"
       style="fill:#1696d2;fill-opacity:1;stroke-width:0.264583" />
    <path
       fill="#4c7189"
       d="m 157.1992,222.23431 c 0,-1.80684 1.38721,-3.09986 3.25385,-3.09986 1.0361,0 1.90129,0.37677 2.46618,1.06178 l -0.89059,0.82206 c -0.40243,-0.46249 -0.90752,-0.70221 -1.5068,-0.70221 -1.12184,0 -1.91823,0.78793 -1.91823,1.91823 0,1.13004 0.79639,1.91797 1.91823,1.91797 0.59954,0 1.10437,-0.23972 1.5068,-0.71067 l 0.89059,0.82179 c -0.56515,0.69374 -1.43008,1.07051 -2.47465,1.07051 -1.85817,2.6e-4 -3.24538,-1.29276 -3.24538,-3.0996 z"
       id="path596-4-2"
       style="fill:#1696d2;fill-opacity:1;stroke-width:0.264583" />
    <path
       fill="#99adb7"
       d="m 170.54769,217.53716 0.47096,-1.04457 c 0.50509,0.3683 1.25889,0.62495 1.97803,0.62495 0.82179,0 1.15596,-0.27385 1.15596,-0.64215 0,-1.12183 -3.48509,-0.3511 -3.48509,-2.5773 0,-1.01918 0.8218,-1.8669 2.52624,-1.8669 0.75353,0 1.524,0.17991 2.08042,0.53101 l -0.42783,1.05305 c -0.55668,-0.31671 -1.1303,-0.47096 -1.66132,-0.47096 -0.82206,0 -1.13903,0.30824 -1.13903,0.685 0,1.1049 3.48536,0.34264 3.48536,2.54318 0,1.00198 -0.8308,1.85817 -2.54318,1.85817 -0.95038,5.3e-4 -1.9095,-0.28231 -2.44052,-0.69348 z"
       id="path598-6-0"
       style="fill:#1696d2;fill-opacity:1;stroke-width:0.264583" />
    <text
       xml:space="preserve"
       style="font-style:normal;font-variant:normal;font-weight:normal;font-stretch:normal;font-size:14.1111px;line-height:0;font-family:'Century Gothic';-inkscape-font-specification:'Century Gothic';fill:#1696d2;fill-opacity:1;stroke-width:0.264583"
       x="153.66963"
       y="250.3349"
       id="text6981-9-4"><tspan
         sodipodi:role="line"
         style="font-style:normal;font-variant:normal;font-weight:normal;font-stretch:normal;font-size:11.2889px;line-height:1.25;font-family:Bahnschrift;-inkscape-font-specification:Bahnschrift;text-align:center;letter-spacing:0.529167px;word-spacing:0.00529167px;text-anchor:middle;fill:#1696d2;fill-opacity:1;stroke-width:0.264583"
         x="153.93422"
         y="250.3349"
         id="tspan14495-0">research</tspan></text>
    <text
       xml:space="preserve"
       style="font-style:normal;font-variant:normal;font-weight:normal;font-stretch:normal;font-size:14.1111px;line-height:0;font-family:'Century Gothic';-inkscape-font-specification:'Century Gothic';fill:#1696d2;fill-opacity:1;stroke-width:0.264583"
       x="153.14398"
       y="261.69443"
       id="text6981-9-2-3"><tspan
         sodipodi:role="line"
         style="font-style:normal;font-variant:normal;font-weight:normal;font-stretch:normal;font-size:14.1111px;line-height:0.7;font-family:'Bauhaus 93';-inkscape-font-specification:'Bauhaus 93, ';text-align:center;letter-spacing:2.38125px;word-spacing:0.00529167px;text-anchor:middle;fill:#1696d2;fill-opacity:1;stroke-width:0.264583"
         x="154.33461"
         y="261.69443"
         id="tspan14495-2-9"
         dy="0.059999999"
         dx="0.050000001">GUIDE</tspan></text>
    <path
       fill="#99adb7"
       d="m 36.091893,254.77473 c 0,0.70326 -0.570177,1.27343 -1.27344,1.27343 h -6.155001 c -0.703263,0 -1.27344,-0.57017 -1.27344,-1.27343 v -26.24694 c 0,-0.70352 0.570177,-1.27344 1.27344,-1.27344 h 6.155001 c 0.703528,0 1.27344,0.57018 1.27344,1.27344 z"
       id="path490-45"
       style="stroke-width:0.264583" />
    <path
       fill="#4c7189"
       d="m 48.543714,254.24212 c 0,0.99748 -0.569913,1.80604 -1.27344,1.80604 h -6.155266 c -0.703263,0 -1.27344,-0.80856 -1.27344,-1.80604 v -31.69073 c 0,-0.99748 0.570177,-1.80605 1.27344,-1.80605 h 6.155266 c 0.703263,0 1.27344,0.80857 1.27344,1.80605 z"
       id="path492-0"
       style="stroke-width:0.264583" />
    <path
       fill="#99adb7"
       d="m 60.99527,254.77473 c 0,0.70326 -0.570177,1.27343 -1.273439,1.27343 h -6.155267 c -0.703263,0 -1.27344,-0.57017 -1.27344,-1.27343 v -29.57222 c 0,-0.70326 0.569913,-1.27344 1.27344,-1.27344 h 6.155267 c 0.703262,0 1.273439,0.57018 1.273439,1.27344 z"
       id="path494-6"
       style="stroke-width:0.264583" />
    <path
       fill="#4c7189"
       d="m 73.447091,254.77473 c 0,0.70326 -0.569913,1.27343 -1.27344,1.27343 h -6.155266 c -0.703263,0 -1.27344,-0.57017 -1.27344,-1.27343 v -40.27885 c 0,-0.70326 0.570177,-1.27344 1.27344,-1.27344 h 6.155266 c 0.703263,0 1.27344,0.57018 1.27344,1.27344 z"
       id="path496-2"
       style="stroke-width:0.264583" />
    <path
       fill="#99adb7"
       d="m 37.571443,242.05806 h -1.719792 c -2.64e-4,0.57732 -0.115887,1.11839 -0.325173,1.61369 -0.313531,0.74189 -0.841639,1.37848 -1.50442,1.82589 -0.66384,0.44741 -1.452563,0.70644 -2.317221,0.70723 -0.577321,-2.6e-4 -1.118394,-0.11589 -1.613694,-0.32517 -0.742156,-0.31353 -1.378744,-0.84164 -1.826154,-1.50442 -0.44741,-0.66384 -0.706437,-1.45256 -0.707231,-2.31722 2.64e-4,-0.57732 0.115887,-1.1184 0.325173,-1.6137 0.313531,-0.74215 0.841639,-1.37874 1.50442,-1.82615 0.66384,-0.44741 1.452563,-0.70644 2.317486,-0.70723 0.577321,2.6e-4 1.118394,0.11589 1.613694,0.32517 0.741891,0.31353 1.378479,0.84164 1.825889,1.50442 0.447411,0.66384 0.706438,1.45256 0.707231,2.31749 h 1.719792 1.719792 c 7.94e-4,-2.08942 -0.851958,-3.99706 -2.221971,-5.36443 -1.367367,-1.37028 -3.275013,-2.22303 -5.364427,-2.22197 -2.089415,-7.9e-4 -3.99706,0.85169 -5.364427,2.22197 -1.370277,1.36737 -2.222765,3.27501 -2.221971,5.36443 -7.94e-4,2.08941 0.851694,3.99679 2.221971,5.36442 1.367367,1.37002 3.274748,2.22277 5.364427,2.22197 2.089414,8e-4 3.996796,-0.85195 5.364427,-2.22197 1.370013,-1.36736 2.222765,-3.27501 2.221971,-5.36442 z"
       id="path572-5"
       style="stroke-width:0.264583" />
    <circle
       fill="#f5f5f5"
       cx="31.70484"
       cy="242.05804"
       r="5.8666062"
       id="circle574-9"
       style="stroke-width:0.264583" />
    <path
       fill="#4c7189"
       d="m 50.060041,234.76984 h -1.719792 c -2.64e-4,0.57733 -0.115887,1.1184 -0.325173,1.6137 -0.313531,0.74189 -0.841639,1.37848 -1.50442,1.82589 -0.66384,0.44741 -1.452563,0.70644 -2.317486,0.70723 -0.577321,-2.7e-4 -1.118393,-0.11589 -1.613693,-0.32517 -0.742157,-0.31354 -1.378744,-0.84164 -1.826155,-1.50442 -0.44741,-0.66411 -0.706437,-1.45257 -0.707231,-2.31749 2.65e-4,-0.57732 0.115888,-1.11839 0.325173,-1.61369 0.313531,-0.74216 0.84164,-1.37875 1.504421,-1.82616 0.663839,-0.44741 1.452562,-0.70644 2.317485,-0.70723 0.577321,2.7e-4 1.118659,0.11589 1.613694,0.32517 0.741892,0.31353 1.378479,0.84164 1.82589,1.50442 0.44741,0.66384 0.706437,1.45257 0.707231,2.31749 h 1.720056 1.719792 c 7.93e-4,-2.08941 -0.851694,-3.99706 -2.221971,-5.36443 -1.367367,-1.37027 -3.275013,-2.22303 -5.364427,-2.22197 -2.089415,-7.9e-4 -3.997061,0.8517 -5.364427,2.22197 -1.370277,1.36737 -2.222765,3.27502 -2.221971,5.36443 -7.94e-4,2.08941 0.851694,3.99706 2.221971,5.36443 1.367366,1.37001 3.275012,2.22276 5.364427,2.22197 2.089414,7.9e-4 3.99706,-0.8517 5.364427,-2.22197 1.370277,-1.36737 2.222764,-3.27475 2.221971,-5.36443 h -1.719792 z"
       id="path576-8"
       style="stroke-width:0.264583" />
    <circle
       fill="#f5f5f5"
       cx="44.193436"
       cy="234.76984"
       r="5.8666062"
       id="circle578-7"
       style="stroke-width:0.264583" />
    <path
       fill="#99adb7"
       d="m 62.962976,237.13601 h -1.719791 c -2.65e-4,0.57732 -0.115888,1.1184 -0.325173,1.6137 -0.313532,0.74189 -0.84164,1.37848 -1.504421,1.82589 -0.664104,0.44741 -1.452563,0.70643 -2.317485,0.70723 -0.577321,-2.7e-4 -1.118659,-0.11589 -1.613694,-0.32518 -0.742156,-0.31353 -1.378744,-0.84163 -1.826154,-1.50442 -0.447411,-0.66384 -0.706438,-1.45256 -0.707232,-2.31722 2.65e-4,-0.57732 0.115888,-1.11839 0.325173,-1.61369 0.313532,-0.74189 0.84164,-1.37848 1.504421,-1.82615 0.664104,-0.44742 1.452563,-0.70644 2.317486,-0.70724 0.57732,2.7e-4 1.118658,0.11589 1.613693,0.32518 0.742157,0.31353 1.378744,0.84164 1.826154,1.50442 0.447146,0.66384 0.706438,1.45256 0.707232,2.31722 h 1.719791 1.719792 c 7.94e-4,-2.08942 -0.851958,-3.99706 -2.221971,-5.36443 -1.367631,-1.37028 -3.275012,-2.22276 -5.364427,-2.22197 -2.089414,-7.9e-4 -3.99706,0.85169 -5.364427,2.22197 -1.370277,1.36737 -2.223029,3.27501 -2.221971,5.36443 -7.93e-4,2.08941 0.851959,3.99679 2.221971,5.36443 1.367367,1.37027 3.275013,2.22276 5.364427,2.22197 2.089415,7.9e-4 3.996796,-0.8517 5.364427,-2.22197 1.370277,-1.36737 2.222765,-3.27475 2.221971,-5.36443 h -1.719792 z"
       id="path580-2"
       style="stroke-width:0.264583" />
    <circle
       fill="#f5f5f5"
       cx="57.096111"
       cy="237.136"
       r="5.8668709"
       id="circle582-34"
       style="stroke-width:0.264583" />
    <path
       fill="#4c7189"
       d="m 75.722243,230.28145 h -1.719792 c -2.64e-4,0.57732 -0.115887,1.1184 -0.325173,1.6137 -0.313531,0.74189 -0.841639,1.37848 -1.504421,1.82615 -0.664104,0.44741 -1.452562,0.70644 -2.317485,0.70723 -0.577321,-2.6e-4 -1.118394,-0.11589 -1.613429,-0.32517 -0.742156,-0.31353 -1.378479,-0.84164 -1.82589,-1.50442 -0.447145,-0.66384 -0.706437,-1.45256 -0.707231,-2.31749 2.65e-4,-0.57732 0.115888,-1.11839 0.325173,-1.61369 0.313531,-0.74189 0.84164,-1.37848 1.504421,-1.82589 0.664104,-0.44741 1.452298,-0.70644 2.317221,-0.70723 0.57732,2.6e-4 1.118658,0.11589 1.613693,0.32517 0.742157,0.31353 1.378744,0.84164 1.826154,1.50442 0.447146,0.66384 0.706438,1.45256 0.707232,2.31722 h 1.719527 1.719791 c 7.94e-4,-2.08941 -0.851958,-3.99679 -2.22197,-5.36442 -1.367632,-1.37028 -3.275013,-2.22277 -5.364427,-2.22198 -2.089415,-7.9e-4 -3.996796,0.85196 -5.364163,2.22198 -1.370012,1.36736 -2.2225,3.27474 -2.221706,5.36416 -7.94e-4,2.08941 0.851958,3.99679 2.221706,5.36443 1.367367,1.37027 3.274748,2.22302 5.364163,2.22197 2.089414,7.9e-4 3.996795,-0.8517 5.364427,-2.22197 1.370277,-1.36737 2.222764,-3.27502 2.22197,-5.36443 h -1.719791 z"
       id="path584-3"
       style="stroke-width:0.264583" />
    <circle
       fill="#f5f5f5"
       cx="69.855637"
       cy="230.28145"
       r="5.8666062"
       id="circle586-4"
       style="stroke-width:0.264583" />
    <polyline
       fill="#f5f5f5"
       points="421.82,219.106 473.968,182.973 469.058,175.885 416.909,212.019  "
       id="polyline588-0"
       transform="matrix(0.26458333,0,0,0.26458333,-78.878824,185.56687)" />
    <polygon
       fill="#f5f5f5"
       points="522.738,202.837 580.6,159.354 575.122,152.694 521.152,192.977 477.586,178.177 474.473,186.218 "
       id="polygon590-4"
       transform="matrix(0.26458333,0,0,0.26458333,-78.878824,185.56687)" />
    <polygon
       fill="#4c7189"
       points="412.673,201.412 423.936,215.167 423.936,201.412 429.114,201.412 429.114,224.067 424.81,224.067 413.514,210.312 413.514,224.067 408.336,224.067 408.336,201.412 "
       id="polygon592-3"
       transform="matrix(0.26458333,0,0,0.26458333,-78.878824,185.56687)"
       style="fill:#0a4c6a;fill-opacity:1" />
    <path
       fill="#99adb7"
       d="m 41.306831,234.88997 c 0,-1.80684 1.38721,-3.09986 3.253846,-3.09986 1.036108,0 1.901031,0.37676 2.466181,1.06177 l -0.890588,0.82206 c -0.402431,-0.46249 -0.907785,-0.7022 -1.507066,-0.7022 -1.121834,0 -1.91823,0.78793 -1.91823,1.91823 0,1.13003 0.796396,1.91796 1.91823,1.91796 0.599545,0 1.104635,-0.23971 1.507066,-0.71067 l 0.890588,0.82179 c -0.56515,0.69348 -1.430073,1.07051 -2.474648,1.07051 -1.858169,2.6e-4 -3.245379,-1.29302 -3.245379,-3.09959 z"
       id="path594-9"
       style="stroke-width:0.264583;fill:#0a4c6a;fill-opacity:1" />
    <path
       fill="#4c7189"
       d="m 54.220349,237.24449 c 0,-1.80684 1.387211,-3.09986 3.253846,-3.09986 1.036108,0 1.901296,0.37677 2.466181,1.06178 l -0.890587,0.82206 c -0.402431,-0.46249 -0.907521,-0.70221 -1.506802,-0.70221 -1.121834,0 -1.918229,0.78793 -1.918229,1.91823 0,1.13004 0.796395,1.91797 1.918229,1.91797 0.599546,0 1.104371,-0.23972 1.506802,-0.71067 l 0.890587,0.82179 c -0.56515,0.69374 -1.430073,1.07051 -2.474648,1.07051 -1.858168,2.6e-4 -3.245379,-1.29276 -3.245379,-3.0996 z"
       id="path596-9"
       style="stroke-width:0.264583;fill:#0a4c6a;fill-opacity:1" />
    <path
       fill="#99adb7"
       d="m 67.568843,232.54734 0.470958,-1.04457 c 0.50509,0.3683 1.258888,0.62495 1.978025,0.62495 0.821796,0 1.155965,-0.27385 1.155965,-0.64215 0,-1.12183 -3.485092,-0.3511 -3.485092,-2.5773 0,-1.01918 0.821796,-1.8669 2.526242,-1.8669 0.753533,0 1.524,0.17991 2.080419,0.53101 l -0.427832,1.05305 c -0.556683,-0.31671 -1.1303,-0.47096 -1.661318,-0.47096 -0.822061,0 -1.139032,0.30824 -1.139032,0.685 0,1.1049 3.485357,0.34264 3.485357,2.54318 0,1.00198 -0.830792,1.85817 -2.543175,1.85817 -0.950384,5.3e-4 -1.909498,-0.28231 -2.440517,-0.69348 z"
       id="path598-1"
       style="stroke-width:0.264583;fill:#0a4c6a;fill-opacity:1" />
    <path
       class="st1"
       d="m 40.799383,201.8749 h 0.687539 v 1.90084 h -0.687539 z"
       id="path6"
       style="fill:#231f20;stroke-width:0.134812" />
    <path
       class="st1"
       d="m 43.819161,201.8749 h 0.660577 l 0.620133,1.06501 h 0.01348 c -0.02696,-0.16177 -0.05393,-0.32355 -0.05393,-0.48532 v -0.56621 h 0.660577 v 1.88736 h -0.660577 l -0.606652,-0.9976 h -0.01348 c 0.02696,0.12133 0.04044,0.25614 0.04044,0.37747 v 0.62013 h -0.660568 z"
       id="path8"
       style="fill:#231f20;stroke-width:0.134812" />
    <path
       class="st1"
       d="m 47.796101,203.10169 0.04044,0.027 c 0.121331,0.10784 0.269623,0.16177 0.431397,0.17525 0.06741,0 0.175255,-0.027 0.175255,-0.10785 0,-0.0809 -0.09437,-0.0944 -0.148293,-0.10785 l -0.134811,-0.027 c -0.269623,-0.0539 -0.498803,-0.20221 -0.498803,-0.51228 0,-0.45836 0.417916,-0.70102 0.822351,-0.70102 0.215698,0 0.417915,0.0539 0.606651,0.16177 l -0.188736,0.48532 c -0.12133,-0.0944 -0.256142,-0.13481 -0.404434,-0.14829 -0.05392,0 -0.148293,0.027 -0.148293,0.10785 0,0.0809 0.08089,0.0809 0.134812,0.0944 l 0.161773,0.0404 c 0.296586,0.0674 0.512284,0.22918 0.512284,0.55273 0,0.45836 -0.417916,0.68754 -0.82235,0.68754 -0.256142,0 -0.498803,-0.0674 -0.727982,-0.17526 z"
       id="path10"
       style="fill:#231f20;stroke-width:0.134812" />
    <path
       class="st1"
       d="m 51.3012,201.8749 h 1.455964 v 0.62013 l -0.377472,-0.0135 v 1.30768 h -0.687539 v -1.30768 l -0.377472,0.0135 v -0.62013 z"
       id="path12"
       style="fill:#231f20;stroke-width:0.134812" />
    <path
       class="st1"
       d="m 55.183772,201.8749 h 0.687538 v 1.90084 h -0.687538 z"
       id="path14"
       style="fill:#231f20;stroke-width:0.134812" />
    <path
       class="st1"
       d="m 58.338361,201.8749 h 1.455964 v 0.62013 l -0.377472,-0.0135 v 1.30768 h -0.687539 v -1.30768 l -0.377472,0.0135 v -0.62013 z"
       id="path16"
       style="fill:#231f20;stroke-width:0.134812" />
    <path
       class="st1"
       d="m 63.676897,201.8749 v 1.13242 c 0,0.55272 -0.35051,0.80887 -0.889756,0.80887 -0.539246,0 -0.889756,-0.25615 -0.889756,-0.80887 v -1.13242 h 0.687538 v 1.06501 c 0,0.14829 0,0.28311 0.188737,0.28311 0.188736,0 0.188736,-0.13482 0.188736,-0.28311 v -1.06501 z"
       id="path18"
       style="fill:#231f20;stroke-width:0.134812" />
    <path
       class="st1"
       d="m 65.523814,201.8749 h 1.455965 v 0.62013 l -0.377473,-0.0135 v 1.30768 h -0.687538 v -1.30768 l -0.377472,0.0135 v -0.62013 z"
       id="path20"
       style="fill:#231f20;stroke-width:0.134812" />
    <path
       class="st1"
       d="m 69.244612,201.8749 h 1.280709 v 0.52577 h -0.579689 v 0.18873 h 0.539246 v 0.4988 h -0.539246 v 0.18874 h 0.606652 v 0.51228 h -1.307672 z"
       id="path22"
       style="fill:#231f20;stroke-width:0.134812" />
    <path
       class="st2"
       d="m 41.500403,193.79969 v 3.42421 c 0,1.68515 -1.065011,2.45357 -2.682749,2.45357 -1.617738,0 -2.682749,-0.76842 -2.682749,-2.45357 v -3.42421 h 2.10306 v 3.222 c 0,0.45836 0.01348,0.84931 0.579689,0.84931 0.566209,0 0.57969,-0.40444 0.57969,-0.84931 v -3.222 z"
       id="path24"
       style="fill:#1696d2;stroke-width:0.134812" />
    <path
       class="st2"
       d="m 43.697831,193.79969 h 2.547937 c 1.307672,0 2.413126,0.55273 2.413126,2.00869 0,0.87628 -0.337028,1.24027 -1.118935,1.50989 v 0.0404 c 0.134811,0.0944 0.256142,0.2157 0.35051,0.35051 l 1.253747,1.88736 h -2.426607 l -0.916719,-1.8604 h -0.04044 v 1.8604 h -2.062619 z m 2.049135,2.56142 h 0.148293 c 0.350509,0 0.687538,-0.0539 0.687538,-0.48532 0,-0.4314 -0.310066,-0.4988 -0.674057,-0.4988 h -0.161774 z"
       id="path26"
       style="fill:#1696d2;stroke-width:0.134812" />
    <path
       class="st2"
       d="m 50.748473,193.79969 h 2.453569 c 1.118936,0 2.264834,0.26962 2.264834,1.60426 0,0.51228 -0.256142,1.01108 -0.754945,1.17286 v 0.0404 c 0.633614,0.22918 1.024568,0.68754 1.024568,1.37508 0,1.18634 -1.105455,1.59077 -2.116541,1.59077 h -2.858004 v -5.78341 z m 2.143503,2.22439 c 0.310066,0 0.647095,-0.027 0.647095,-0.4314 0,-0.43139 -0.390953,-0.40443 -0.70102,-0.40443 h -0.148292 v 0.83583 z m -0.188736,2.18395 h 0.24266 c 0.35051,0 0.849313,-0.0135 0.849313,-0.48532 0,-0.47184 -0.539246,-0.47184 -0.876275,-0.47184 h -0.202217 z"
       id="path28"
       style="fill:#1696d2;stroke-width:0.134812" />
    <path
       class="st2"
       d="m 59.160711,199.5831 h -2.22439 l 2.008692,-5.78341 h 2.332239 l 2.062616,5.7969 h -2.22439 l -0.188736,-0.72799 h -1.590776 z m 1.388559,-2.08957 -0.242661,-1.02457 c -0.06741,-0.24266 -0.09437,-0.4988 -0.134812,-0.74146 h -0.08089 l -0.377473,1.76603 z"
       id="path30"
       style="fill:#1696d2;stroke-width:0.134812" />
    <path
       class="st2"
       d="m 64.728426,193.79969 h 2.022173 l 1.887361,3.20852 h 0.06741 c -0.09437,-0.48533 -0.161778,-0.98413 -0.175259,-1.46945 v -1.73907 h 2.008692 v 5.7969 h -2.008692 l -1.846918,-3.04674 h -0.06741 c 0.08089,0.37747 0.12133,0.76842 0.134811,1.15937 v 1.88737 h -2.022173 z"
       id="path32"
       style="fill:#1696d2;stroke-width:0.134812" />
    <rect
       x="51.570824"
       y="213.36084"
       class="st3"
       width="0.59317064"
       height="0.59317064"
       id="rect34"
       style="fill:#9d9fa2;stroke-width:0.134812" />
    <rect
       x="47.984837"
       y="213.36084"
       class="st3"
       width="0.59317064"
       height="0.59317064"
       id="rect36"
       style="fill:#9d9fa2;stroke-width:0.134812" />
    <rect
       x="37.199917"
       y="213.36084"
       class="st3"
       width="0.59317064"
       height="0.59317064"
       id="rect38"
       style="fill:#9d9fa2;stroke-width:0.134812" />
    <rect
       x="40.785904"
       y="213.36084"
       class="st3"
       width="0.59317064"
       height="0.59317064"
       id="rect40"
       style="fill:#9d9fa2;stroke-width:0.134812" />
    <rect
       x="44.385368"
       y="213.36084"
       class="st3"
       width="0.59317064"
       height="0.59317064"
       id="rect42"
       style="fill:#9d9fa2;stroke-width:0.134812" />
    <rect
       x="33.600449"
       y="213.36084"
       class="st3"
       width="0.59317064"
       height="0.59317064"
       id="rect44"
       style="fill:#9d9fa2;stroke-width:0.134812" />
    <rect
       x="30.00098"
       y="213.36084"
       class="st3"
       width="0.59317064"
       height="0.59317064"
       id="rect46"
       style="fill:#9d9fa2;stroke-width:0.134812" />
    <rect
       x="26.414995"
       y="213.36084"
       class="st3"
       width="0.59317064"
       height="0.59317064"
       id="rect48"
       style="fill:#9d9fa2;stroke-width:0.134812" />
    <rect
       x="47.984837"
       y="191.791"
       class="st3"
       width="0.59317064"
       height="0.59317064"
       id="rect50"
       style="fill:#9d9fa2;stroke-width:0.134812" />
    <rect
       x="51.570824"
       y="191.791"
       class="st3"
       width="0.59317064"
       height="0.59317064"
       id="rect52"
       style="fill:#9d9fa2;stroke-width:0.134812" />
    <rect
       x="37.199917"
       y="191.791"
       class="st3"
       width="0.59317064"
       height="0.59317064"
       id="rect54"
       style="fill:#9d9fa2;stroke-width:0.134812" />
    <rect
       x="40.785904"
       y="191.791"
       class="st3"
       width="0.59317064"
       height="0.59317064"
       id="rect56"
       style="fill:#9d9fa2;stroke-width:0.134812" />
    <rect
       x="44.385368"
       y="191.791"
       class="st3"
       width="0.59317064"
       height="0.59317064"
       id="rect58"
       style="fill:#9d9fa2;stroke-width:0.134812" />
    <rect
       x="33.600449"
       y="191.791"
       class="st3"
       width="0.59317064"
       height="0.59317064"
       id="rect60"
       style="fill:#9d9fa2;stroke-width:0.134812" />
    <rect
       x="47.984837"
       y="206.1754"
       class="st3"
       width="0.59317064"
       height="0.59317064"
       id="rect62"
       style="fill:#9d9fa2;stroke-width:0.134812" />
    <rect
       x="51.570824"
       y="206.1754"
       class="st3"
       width="0.59317064"
       height="0.59317064"
       id="rect64"
       style="fill:#9d9fa2;stroke-width:0.134812" />
    <rect
       x="37.199917"
       y="206.1754"
       class="st3"
       width="0.59317064"
       height="0.59317064"
       id="rect66"
       style="fill:#9d9fa2;stroke-width:0.134812" />
    <rect
       x="40.785904"
       y="206.1754"
       class="st3"
       width="0.59317064"
       height="0.59317064"
       id="rect68"
       style="fill:#9d9fa2;stroke-width:0.134812" />
    <rect
       x="44.385368"
       y="206.1754"
       class="st3"
       width="0.59317064"
       height="0.59317064"
       id="rect70"
       style="fill:#9d9fa2;stroke-width:0.134812" />
    <rect
       x="33.600449"
       y="206.1754"
       class="st3"
       width="0.59317064"
       height="0.59317064"
       id="rect72"
       style="fill:#9d9fa2;stroke-width:0.134812" />
    <rect
       x="33.600449"
       y="202.57593"
       class="st3"
       width="0.59317064"
       height="0.59317064"
       id="rect74"
       style="fill:#9d9fa2;stroke-width:0.134812" />
    <rect
       x="33.600449"
       y="198.98994"
       class="st3"
       width="0.59317064"
       height="0.59317064"
       id="rect76"
       style="fill:#9d9fa2;stroke-width:0.134812" />
    <rect
       x="33.600449"
       y="195.39047"
       class="st3"
       width="0.59317064"
       height="0.59317064"
       id="rect78"
       style="fill:#9d9fa2;stroke-width:0.134812" />
    <rect
       x="44.385368"
       y="191.791"
       class="st3"
       width="0.59317064"
       height="0.59317064"
       id="rect80"
       style="fill:#9d9fa2;stroke-width:0.134812" />
    <rect
       x="47.984837"
       y="191.791"
       class="st3"
       width="0.59317064"
       height="0.59317064"
       id="rect82"
       style="fill:#9d9fa2;stroke-width:0.134812" />
    <rect
       x="51.570824"
       y="191.791"
       class="st3"
       width="0.59317064"
       height="0.59317064"
       id="rect84"
       style="fill:#9d9fa2;stroke-width:0.134812" />
    <rect
       x="33.600449"
       y="191.791"
       class="st3"
       width="0.59317064"
       height="0.59317064"
       id="rect86"
       style="fill:#9d9fa2;stroke-width:0.134812" />
    <rect
       x="37.199917"
       y="191.791"
       class="st3"
       width="0.59317064"
       height="0.59317064"
       id="rect88"
       style="fill:#9d9fa2;stroke-width:0.134812" />
    <rect
       x="40.785904"
       y="191.791"
       class="st3"
       width="0.59317064"
       height="0.59317064"
       id="rect90"
       style="fill:#9d9fa2;stroke-width:0.134812" />
    <rect
       x="30.00098"
       y="191.791"
       class="st3"
       width="0.59317064"
       height="0.59317064"
       id="rect92"
       style="fill:#9d9fa2;stroke-width:0.134812" />
    <rect
       x="30.00098"
       y="206.1754"
       class="st3"
       width="0.59317064"
       height="0.59317064"
       id="rect94"
       style="fill:#9d9fa2;stroke-width:0.134812" />
    <rect
       x="30.00098"
       y="202.57593"
       class="st3"
       width="0.59317064"
       height="0.59317064"
       id="rect96"
       style="fill:#9d9fa2;stroke-width:0.134812" />
    <rect
       x="30.00098"
       y="198.98994"
       class="st3"
       width="0.59317064"
       height="0.59317064"
       id="rect98"
       style="fill:#9d9fa2;stroke-width:0.134812" />
    <rect
       x="30.00098"
       y="195.39047"
       class="st3"
       width="0.59317064"
       height="0.59317064"
       id="rect100"
       style="fill:#9d9fa2;stroke-width:0.134812" />
    <rect
       x="40.785904"
       y="191.791"
       class="st3"
       width="0.59317064"
       height="0.59317064"
       id="rect102"
       style="fill:#9d9fa2;stroke-width:0.134812" />
    <rect
       x="44.385368"
       y="191.791"
       class="st3"
       width="0.59317064"
       height="0.59317064"
       id="rect104"
       style="fill:#9d9fa2;stroke-width:0.134812" />
    <rect
       x="47.984837"
       y="191.791"
       class="st3"
       width="0.59317064"
       height="0.59317064"
       id="rect106"
       style="fill:#9d9fa2;stroke-width:0.134812" />
    <rect
       x="51.570824"
       y="191.791"
       class="st3"
       width="0.59317064"
       height="0.59317064"
       id="rect108"
       style="fill:#9d9fa2;stroke-width:0.134812" />
    <rect
       x="30.00098"
       y="191.791"
       class="st3"
       width="0.59317064"
       height="0.59317064"
       id="rect110"
       style="fill:#9d9fa2;stroke-width:0.134812" />
    <rect
       x="33.600449"
       y="191.791"
       class="st3"
       width="0.59317064"
       height="0.59317064"
       id="rect112"
       style="fill:#9d9fa2;stroke-width:0.134812" />
    <rect
       x="37.199917"
       y="191.791"
       class="st3"
       width="0.59317064"
       height="0.59317064"
       id="rect114"
       style="fill:#9d9fa2;stroke-width:0.134812" />
    <rect
       x="47.984837"
       y="209.77486"
       class="st3"
       width="0.59317064"
       height="0.59317064"
       id="rect116"
       style="fill:#9d9fa2;stroke-width:0.134812" />
    <rect
       x="51.570824"
       y="209.77486"
       class="st3"
       width="0.59317064"
       height="0.59317064"
       id="rect118"
       style="fill:#9d9fa2;stroke-width:0.134812" />
    <rect
       x="37.199917"
       y="209.77486"
       class="st3"
       width="0.59317064"
       height="0.59317064"
       id="rect120"
       style="fill:#9d9fa2;stroke-width:0.134812" />
    <rect
       x="40.785904"
       y="209.77486"
       class="st3"
       width="0.59317064"
       height="0.59317064"
       id="rect122"
       style="fill:#9d9fa2;stroke-width:0.134812" />
    <rect
       x="44.385368"
       y="209.77486"
       class="st3"
       width="0.59317064"
       height="0.59317064"
       id="rect124"
       style="fill:#9d9fa2;stroke-width:0.134812" />
    <rect
       x="33.600449"
       y="209.77486"
       class="st3"
       width="0.59317064"
       height="0.59317064"
       id="rect126"
       style="fill:#9d9fa2;stroke-width:0.134812" />
    <rect
       x="30.00098"
       y="209.77486"
       class="st3"
       width="0.59317064"
       height="0.59317064"
       id="rect128"
       style="fill:#9d9fa2;stroke-width:0.134812" />
    <rect
       x="26.414995"
       y="191.791"
       class="st3"
       width="0.59317064"
       height="0.59317064"
       id="rect130"
       style="fill:#9d9fa2;stroke-width:0.134812" />
    <rect
       x="26.414995"
       y="206.1754"
       class="st3"
       width="0.59317064"
       height="0.59317064"
       id="rect132"
       style="fill:#9d9fa2;stroke-width:0.134812" />
    <rect
       x="26.414995"
       y="209.77486"
       class="st3"
       width="0.59317064"
       height="0.59317064"
       id="rect134"
       style="fill:#9d9fa2;stroke-width:0.134812" />
    <rect
       x="26.414995"
       y="202.57593"
       class="st3"
       width="0.59317064"
       height="0.59317064"
       id="rect136"
       style="fill:#9d9fa2;stroke-width:0.134812" />
    <rect
       x="26.414995"
       y="198.98994"
       class="st3"
       width="0.59317064"
       height="0.59317064"
       id="rect138"
       style="fill:#9d9fa2;stroke-width:0.134812" />
    <rect
       x="26.414995"
       y="195.39047"
       class="st3"
       width="0.59317064"
       height="0.59317064"
       id="rect140"
       style="fill:#9d9fa2;stroke-width:0.134812" />
    <rect
       x="37.199917"
       y="202.57593"
       class="st3"
       width="0.59317064"
       height="0.59317064"
       id="rect142"
       style="fill:#9d9fa2;stroke-width:0.134812" />
    <rect
       x="47.984837"
       y="188.20502"
       class="st3"
       width="0.59317064"
       height="0.59317064"
       id="rect144"
       style="fill:#9d9fa2;stroke-width:0.134812" />
    <rect
       x="51.570824"
       y="188.20502"
       class="st3"
       width="0.59317064"
       height="0.59317064"
       id="rect146"
       style="fill:#9d9fa2;stroke-width:0.134812" />
    <rect
       x="37.199917"
       y="188.20502"
       class="st3"
       width="0.59317064"
       height="0.59317064"
       id="rect148"
       style="fill:#9d9fa2;stroke-width:0.134812" />
    <rect
       x="40.785904"
       y="188.20502"
       class="st3"
       width="0.59317064"
       height="0.59317064"
       id="rect150"
       style="fill:#9d9fa2;stroke-width:0.134812" />
    <rect
       x="44.385368"
       y="188.20502"
       class="st3"
       width="0.59317064"
       height="0.59317064"
       id="rect152"
       style="fill:#9d9fa2;stroke-width:0.134812" />
    <rect
       x="33.600449"
       y="188.20502"
       class="st3"
       width="0.59317064"
       height="0.59317064"
       id="rect154"
       style="fill:#9d9fa2;stroke-width:0.134812" />
    <rect
       x="30.00098"
       y="188.20502"
       class="st3"
       width="0.59317064"
       height="0.59317064"
       id="rect156"
       style="fill:#9d9fa2;stroke-width:0.134812" />
    <rect
       x="26.414995"
       y="188.20502"
       class="st3"
       width="0.59317064"
       height="0.59317064"
       id="rect158"
       style="fill:#9d9fa2;stroke-width:0.134812" />
    <rect
       style="fill:none;fill-opacity:0.937255;stroke-width:0.262938"
       id="rect11502-4-3-4"
       width="53.714771"
       height="67.494331"
       x="25.964264"
       y="90.853447"
       inkscape:export-filename="nccs-logo-blue6.png"
       inkscape:export-xdpi="96"
       inkscape:export-ydpi="96" />
    <text
       xml:space="preserve"
       style="font-style:normal;font-variant:normal;font-weight:normal;font-stretch:normal;font-size:14.3771px;line-height:0;font-family:'Century Gothic';-inkscape-font-specification:'Century Gothic';fill:#0a4c6a;fill-opacity:1;stroke-width:0.269568"
       x="51.839725"
       y="75.20224"
       id="text6981-9-29-9"
       transform="scale(1.0188374,0.98151089)"><tspan
         sodipodi:role="line"
         style="font-style:normal;font-variant:normal;font-weight:normal;font-stretch:normal;font-size:11.5017px;line-height:1.25;font-family:Bahnschrift;-inkscape-font-specification:Bahnschrift;text-align:center;letter-spacing:0.539134px;word-spacing:0.00539135px;text-anchor:middle;fill:#0a4c6a;fill-opacity:1;stroke-width:0.269568"
         x="52.109291"
         y="75.20224"
         id="tspan14495-26-3">research</tspan></text>
    <text
       xml:space="preserve"
       style="font-style:normal;font-variant:normal;font-weight:normal;font-stretch:normal;font-size:14.3921px;line-height:0;font-family:'Century Gothic';-inkscape-font-specification:'Century Gothic';fill:#0a4c6a;fill-opacity:1;stroke-width:0.269852"
       x="51.075108"
       y="86.86673"
       id="text6981-9-2-0-1"
       transform="scale(1.0199073,0.98048126)"><tspan
         sodipodi:role="line"
         style="font-style:normal;font-variant:normal;font-weight:normal;font-stretch:normal;font-size:14.3921px;line-height:0.7;font-family:'Bauhaus 93';-inkscape-font-specification:'Bauhaus 93, ';text-align:center;letter-spacing:2.42865px;word-spacing:0.00539701px;text-anchor:middle;fill:#0a4c6a;fill-opacity:1;stroke-width:0.269852"
         x="52.289433"
         y="86.86673"
         id="tspan14495-2-3-4"
         dy="0.061194431"
         dx="0.050995372">GUIDE</tspan></text>
    <path
       fill="#99adb7"
       d="m 38.155905,123.08101 c 0,0.70326 -0.570177,1.27343 -1.27344,1.27343 h -6.155001 c -0.703263,0 -1.27344,-0.57017 -1.27344,-1.27343 V 96.83407 c 0,-0.70352 0.570177,-1.27344 1.27344,-1.27344 h 6.155001 c 0.703528,0 1.27344,0.57018 1.27344,1.27344 z"
       id="path490-45-4"
       style="stroke-width:0.264583;fill:#1696d2;fill-opacity:1" />
    <path
       fill="#4c7189"
       d="m 50.607726,122.5484 c 0,0.99748 -0.569913,1.80604 -1.27344,1.80604 H 43.17902 c -0.703263,0 -1.27344,-0.80856 -1.27344,-1.80604 V 90.85767 c 0,-0.99748 0.570177,-1.80605 1.27344,-1.80605 h 6.155266 c 0.703263,0 1.27344,0.80857 1.27344,1.80605 z"
       id="path492-0-8"
       style="stroke-width:0.264583;fill:#1696d2;fill-opacity:1" />
    <path
       fill="#99adb7"
       d="m 63.059282,123.08101 c 0,0.70326 -0.570177,1.27343 -1.273439,1.27343 h -6.155267 c -0.703263,0 -1.27344,-0.57017 -1.27344,-1.27343 V 93.50879 c 0,-0.70326 0.569913,-1.27344 1.27344,-1.27344 h 6.155267 c 0.703262,0 1.273439,0.57018 1.273439,1.27344 z"
       id="path494-6-0"
       style="stroke-width:0.264583;fill:#1696d2;fill-opacity:1" />
    <path
       fill="#4c7189"
       d="m 76.276634,123.16426 c 0,0.60492 -0.569913,1.09536 -1.27344,1.09536 h -6.155266 c -0.703263,0 -1.27344,-0.49044 -1.27344,-1.09536 V 88.517899 c 0,-0.604918 0.570177,-1.095366 1.27344,-1.095366 h 6.155266 c 0.703263,0 1.27344,0.490448 1.27344,1.095366 z"
       id="path496-2-3"
       style="stroke-width:0.245387;fill:#1696d2;fill-opacity:1" />
    <path
       fill="#99adb7"
       d="m 39.635455,110.36434 h -1.719792 c -2.64e-4,0.57732 -0.115887,1.11839 -0.325173,1.61369 -0.313531,0.74189 -0.841639,1.37848 -1.50442,1.82589 -0.66384,0.44741 -1.452563,0.70644 -2.317221,0.70723 -0.577321,-2.6e-4 -1.118394,-0.11589 -1.613694,-0.32517 -0.742156,-0.31353 -1.378744,-0.84164 -1.826154,-1.50442 -0.44741,-0.66384 -0.706437,-1.45256 -0.707231,-2.31722 2.64e-4,-0.57732 0.115887,-1.1184 0.325173,-1.6137 0.313531,-0.74215 0.841639,-1.37874 1.50442,-1.82615 0.66384,-0.44741 1.452563,-0.70644 2.317486,-0.70723 0.577321,2.6e-4 1.118394,0.11589 1.613694,0.32517 0.741891,0.31353 1.378479,0.84164 1.825889,1.50442 0.447411,0.66384 0.706438,1.45256 0.707231,2.31749 h 1.719792 1.719792 c 7.94e-4,-2.08942 -0.851958,-3.99706 -2.221971,-5.36443 -1.367367,-1.37028 -3.275013,-2.22303 -5.364427,-2.22197 -2.089415,-7.9e-4 -3.99706,0.85169 -5.364427,2.22197 -1.370277,1.36737 -2.222765,3.27501 -2.221971,5.36443 -7.94e-4,2.08941 0.851694,3.99679 2.221971,5.36442 1.367367,1.37002 3.274748,2.22277 5.364427,2.22197 2.089414,8e-4 3.996796,-0.85195 5.364427,-2.22197 1.370013,-1.36736 2.222765,-3.27501 2.221971,-5.36442 z"
       id="path572-5-0"
       style="stroke-width:0.264583" />
    <circle
       fill="#f5f5f5"
       cx="33.768852"
       cy="110.36433"
       id="circle574-9-7"
       style="stroke-width:0.264583"
       r="5.8666062" />
    <path
       fill="#4c7189"
       d="m 52.124053,103.07612 h -1.719792 c -2.64e-4,0.57733 -0.115887,1.1184 -0.325173,1.6137 -0.313531,0.74189 -0.841639,1.37848 -1.50442,1.82589 -0.66384,0.44741 -1.452563,0.70644 -2.317486,0.70723 -0.577321,-2.7e-4 -1.118393,-0.11589 -1.613693,-0.32517 -0.742157,-0.31354 -1.378744,-0.84164 -1.826155,-1.50442 -0.44741,-0.66411 -0.706437,-1.45257 -0.707231,-2.31749 2.65e-4,-0.57732 0.115888,-1.11839 0.325173,-1.61369 0.313531,-0.74216 0.84164,-1.37875 1.504421,-1.82616 0.663839,-0.44741 1.452562,-0.70644 2.317485,-0.70723 0.577321,2.7e-4 1.118659,0.11589 1.613694,0.32517 0.741892,0.31353 1.378479,0.84164 1.82589,1.50442 0.44741,0.66384 0.706437,1.45257 0.707231,2.31749 h 1.720056 1.719792 c 7.93e-4,-2.08941 -0.851694,-3.99706 -2.221971,-5.36443 -1.367367,-1.37027 -3.275013,-2.22303 -5.364427,-2.22197 -2.089415,-7.9e-4 -3.997061,0.8517 -5.364427,2.22197 -1.370277,1.36737 -2.222765,3.27502 -2.221971,5.36443 -7.94e-4,2.08941 0.851694,3.99706 2.221971,5.36443 1.367366,1.37001 3.275012,2.22276 5.364427,2.22197 2.089414,7.9e-4 3.99706,-0.8517 5.364427,-2.22197 1.370277,-1.36737 2.222764,-3.27475 2.221971,-5.36443 h -1.719792 z"
       id="path576-8-2"
       style="stroke-width:0.264583" />
    <circle
       fill="#f5f5f5"
       cx="46.257446"
       cy="103.07612"
       id="circle578-7-5"
       style="stroke-width:0.264583"
       r="5.8666062" />
    <path
       fill="#99adb7"
       d="m 65.026988,105.44229 h -1.719791 c -2.65e-4,0.57732 -0.115888,1.1184 -0.325173,1.6137 -0.313532,0.74189 -0.84164,1.37848 -1.504421,1.82589 -0.664104,0.44741 -1.452563,0.70643 -2.317485,0.70723 -0.577321,-2.7e-4 -1.118659,-0.11589 -1.613694,-0.32518 -0.742156,-0.31353 -1.378744,-0.84163 -1.826154,-1.50442 -0.447411,-0.66384 -0.706438,-1.45256 -0.707232,-2.31722 2.65e-4,-0.57732 0.115888,-1.11839 0.325173,-1.61369 0.313532,-0.74189 0.84164,-1.37848 1.504421,-1.82615 0.664104,-0.44742 1.452563,-0.70644 2.317486,-0.70724 0.57732,2.7e-4 1.118658,0.11589 1.613693,0.32518 0.742157,0.31353 1.378744,0.84164 1.826154,1.50442 0.447146,0.66384 0.706438,1.45256 0.707232,2.31722 h 1.719791 1.719792 c 7.94e-4,-2.08942 -0.851958,-3.99706 -2.221971,-5.36443 -1.367631,-1.37028 -3.275012,-2.22276 -5.364427,-2.22197 -2.089414,-7.9e-4 -3.99706,0.85169 -5.364427,2.22197 -1.370277,1.36737 -2.223029,3.27501 -2.221971,5.36443 -7.93e-4,2.08941 0.851959,3.99679 2.221971,5.36443 1.367367,1.37027 3.275013,2.22276 5.364427,2.22197 2.089415,7.9e-4 3.996796,-0.8517 5.364427,-2.22197 1.370277,-1.36737 2.222765,-3.27475 2.221971,-5.36443 h -1.719792 z"
       id="path580-2-3"
       style="stroke-width:0.264583" />
    <circle
       fill="#f5f5f5"
       cx="59.160122"
       cy="105.44228"
       id="circle582-34-6"
       style="stroke-width:0.264583"
       r="5.8668709" />
    <path
       fill="#4c7189"
       d="m 77.786255,98.58773 h -1.719792 c -2.64e-4,0.57732 -0.115887,1.1184 -0.325173,1.6137 -0.313531,0.74189 -0.841639,1.37848 -1.504421,1.82615 -0.664104,0.44741 -1.452562,0.70644 -2.317485,0.70723 -0.577321,-2.6e-4 -1.118394,-0.11589 -1.613429,-0.32517 -0.742156,-0.31353 -1.378479,-0.84164 -1.82589,-1.50442 -0.447145,-0.66384 -0.706437,-1.45256 -0.707231,-2.31749 2.65e-4,-0.57732 0.115888,-1.11839 0.325173,-1.61369 0.313531,-0.74189 0.84164,-1.37848 1.504421,-1.82589 0.664104,-0.44741 1.452298,-0.70644 2.317221,-0.70723 0.57732,2.6e-4 1.118658,0.11589 1.613693,0.32517 0.742157,0.31353 1.378744,0.84164 1.826154,1.50442 0.447146,0.66384 0.706438,1.45256 0.707232,2.31722 h 1.719527 1.719791 c 7.94e-4,-2.08941 -0.851958,-3.99679 -2.22197,-5.36442 -1.367632,-1.37028 -3.275013,-2.22277 -5.364427,-2.22198 -2.089415,-7.9e-4 -3.996796,0.85196 -5.364163,2.22198 -1.370012,1.36736 -2.2225,3.27474 -2.221706,5.36416 -7.94e-4,2.08941 0.851958,3.99679 2.221706,5.36443 1.367367,1.37027 3.274748,2.22302 5.364163,2.22197 2.089414,7.9e-4 3.996795,-0.8517 5.364427,-2.22197 1.370277,-1.36737 2.222764,-3.27502 2.22197,-5.36443 h -1.719791 z"
       id="path584-3-7"
       style="stroke-width:0.264583" />
    <circle
       fill="#f5f5f5"
       cx="71.919647"
       cy="98.58773"
       r="5.8666062"
       id="circle586-4-1"
       style="stroke-width:0.264583" />
    <polyline
       fill="#f5f5f5"
       points="421.82,219.106 473.968,182.973 469.058,175.885 416.909,212.019  "
       id="polyline588-0-0"
       transform="matrix(0.26458333,0,0,0.26458333,-76.814812,53.87315)" />
    <polygon
       fill="#f5f5f5"
       points="522.738,202.837 580.6,159.354 575.122,152.694 521.152,192.977 477.586,178.177 474.473,186.218 "
       id="polygon590-4-5"
       transform="matrix(0.26458333,0,0,0.26458333,-76.814812,53.87315)" />
    <polygon
       fill="#4c7189"
       points="413.514,210.312 413.514,224.067 408.336,224.067 408.336,201.412 412.673,201.412 423.936,215.167 423.936,201.412 429.114,201.412 429.114,224.067 424.81,224.067 "
       id="polygon592-3-5"
       transform="matrix(0.26458333,0,0,0.26458333,-76.814812,53.87315)"
       style="fill:#0a4c6a;fill-opacity:1" />
    <path
       fill="#99adb7"
       d="m 43.370843,103.19625 c 0,-1.80684 1.38721,-3.09986 3.253846,-3.09986 1.036108,0 1.901031,0.37676 2.466181,1.06177 l -0.890588,0.82206 c -0.402431,-0.46249 -0.907785,-0.7022 -1.507066,-0.7022 -1.121834,0 -1.91823,0.78793 -1.91823,1.91823 0,1.13003 0.796396,1.91796 1.91823,1.91796 0.599545,0 1.104635,-0.23971 1.507066,-0.71067 l 0.890588,0.82179 c -0.56515,0.69348 -1.430073,1.07051 -2.474648,1.07051 -1.858169,2.6e-4 -3.245379,-1.29302 -3.245379,-3.09959 z"
       id="path594-9-4"
       style="fill:#0a4c6a;fill-opacity:1;stroke-width:0.264583" />
    <path
       fill="#4c7189"
       d="m 56.284361,105.55077 c 0,-1.80684 1.387211,-3.09986 3.253846,-3.09986 1.036108,0 1.901296,0.37677 2.466181,1.06178 l -0.890587,0.82206 c -0.402431,-0.46249 -0.907521,-0.70221 -1.506802,-0.70221 -1.121834,0 -1.918229,0.78793 -1.918229,1.91823 0,1.13004 0.796395,1.91797 1.918229,1.91797 0.599546,0 1.104371,-0.23972 1.506802,-0.71067 l 0.890587,0.82179 c -0.56515,0.69374 -1.430073,1.07051 -2.474648,1.07051 -1.858168,2.6e-4 -3.245379,-1.29276 -3.245379,-3.0996 z"
       id="path596-9-7"
       style="fill:#0a4c6a;fill-opacity:1;stroke-width:0.264583" />
    <path
       fill="#99adb7"
       d="m 69.632855,100.85362 0.470958,-1.04457 c 0.50509,0.3683 1.258888,0.62495 1.978025,0.62495 0.821796,0 1.155965,-0.27385 1.155965,-0.64215 0,-1.12183 -3.485092,-0.3511 -3.485092,-2.5773 0,-1.01918 0.821796,-1.8669 2.526242,-1.8669 0.753533,0 1.524,0.17991 2.080419,0.53101 l -0.427832,1.05305 c -0.556683,-0.31671 -1.1303,-0.47096 -1.661318,-0.47096 -0.822061,0 -1.139032,0.30824 -1.139032,0.685 0,1.1049 3.485357,0.34264 3.485357,2.54318 0,1.00198 -0.830792,1.85817 -2.543175,1.85817 -0.950384,5.3e-4 -1.909498,-0.28231 -2.440517,-0.69348 z"
       id="path598-1-2"
       style="fill:#0a4c6a;fill-opacity:1;stroke-width:0.264583" />
    <path
       class="st1"
       d="m 138.48025,193.03181 h 0.87896 v 2.4637 h -0.87896 z"
       id="path6-4"
       style="fill:#231f20;stroke-width:0.173535" />
    <path
       class="st1"
       d="m 142.34081,193.03181 h 0.84449 l 0.79279,1.38037 h 0.0173 c -0.0345,-0.20967 -0.069,-0.41934 -0.069,-0.62903 v -0.73387 h 0.84451 v 2.44623 h -0.84451 l -0.77554,-1.293 h -0.0173 c 0.0345,0.15726 0.0517,0.33199 0.0517,0.48925 v 0.80375 h -0.84451 z"
       id="path8-4"
       style="fill:#231f20;stroke-width:0.173535" />
    <path
       class="st1"
       d="m 147.42502,194.62187 0.0517,0.035 c 0.15511,0.13979 0.3447,0.20967 0.55152,0.22715 0.0861,0 0.22403,-0.035 0.22403,-0.1398 0,-0.10485 -0.12067,-0.12235 -0.18957,-0.13977 l -0.17235,-0.035 c -0.34468,-0.0699 -0.63767,-0.26209 -0.63767,-0.66397 0,-0.59408 0.53427,-0.9086 1.05131,-0.9086 0.27575,0 0.53426,0.0699 0.77556,0.20968 l -0.2413,0.62903 c -0.15511,-0.12234 -0.32744,-0.17473 -0.51703,-0.19221 -0.069,0 -0.18957,0.035 -0.18957,0.13979 0,0.10486 0.10351,0.10486 0.17234,0.12235 l 0.20682,0.0523 c 0.37915,0.0874 0.65491,0.29704 0.65491,0.71641 0,0.59408 -0.53428,0.89112 -1.05132,0.89112 -0.32745,0 -0.63768,-0.0874 -0.93067,-0.22715 z"
       id="path10-5"
       style="fill:#231f20;stroke-width:0.173535" />
    <path
       class="st1"
       d="m 151.90602,193.03181 h 1.86134 v 0.80377 l -0.48257,-0.0175 v 1.69489 h -0.87895 v -1.69489 l -0.48258,0.0175 v -0.80377 z"
       id="path12-2"
       style="fill:#231f20;stroke-width:0.173535" />
    <path
       class="st1"
       d="m 156.8696,193.03181 h 0.87896 v 2.4637 h -0.87896 z"
       id="path14-4"
       style="fill:#231f20;stroke-width:0.173535" />
    <path
       class="st1"
       d="m 160.90249,193.03181 h 1.86136 v 0.80377 l -0.48257,-0.0175 v 1.69489 h -0.87897 v -1.69489 l -0.48259,0.0175 v -0.80377 z"
       id="path16-9"
       style="fill:#231f20;stroke-width:0.173535" />
    <path
       class="st1"
       d="m 167.72742,193.03181 v 1.46774 c 0,0.7164 -0.44811,1.04839 -1.1375,1.04839 -0.68938,0 -1.13746,-0.33199 -1.13746,-1.04839 v -1.46774 h 0.87895 v 1.38037 c 0,0.19222 0,0.36694 0.24129,0.36694 0.24128,0 0.24128,-0.17472 0.24128,-0.36694 v -1.38037 z"
       id="path18-1"
       style="fill:#231f20;stroke-width:0.173535" />
    <path
       class="st1"
       d="m 170.08856,193.03181 h 1.86133 v 0.80377 l -0.48256,-0.0175 v 1.69489 h -0.87896 v -1.69489 l -0.48257,0.0175 v -0.80377 z"
       id="path20-3"
       style="fill:#231f20;stroke-width:0.173535" />
    <path
       class="st1"
       d="m 174.84531,193.03181 h 1.63729 v 0.68146 h -0.7411 v 0.24461 h 0.6894 v 0.64652 h -0.6894 v 0.24461 h 0.77558 v 0.66398 h -1.67177 z"
       id="path22-7"
       style="fill:#231f20;stroke-width:0.173535" />
    <path
       class="st2"
       d="m 139.37646,182.56546 v 4.43816 c 0,2.18413 -1.36156,3.18008 -3.42969,3.18008 -2.06816,0 -3.42969,-0.99595 -3.42969,-3.18008 v -4.43816 h 2.6886 v 4.17606 c 0,0.59409 0.0173,1.1008 0.74109,1.1008 0.72384,0 0.74109,-0.52418 0.74109,-1.1008 v -4.17606 z"
       id="path24-8"
       style="fill:#1696d2;stroke-width:0.173535" />
    <path
       class="st2"
       d="m 142.1857,182.56546 h 3.25734 c 1.67177,0 3.085,0.71639 3.085,2.60348 0,1.13575 -0.43086,1.60752 -1.43048,1.95698 v 0.0525 c 0.17235,0.12236 0.32746,0.27956 0.44809,0.4543 l 1.60284,2.44623 h -3.10225 l -1.17195,-2.41129 h -0.0517 v 2.41129 h -2.63688 z m 2.61966,3.31988 h 0.18957 c 0.44811,0 0.87899,-0.0699 0.87899,-0.62903 0,-0.55914 -0.39641,-0.6465 -0.86174,-0.6465 h -0.20682 z"
       id="path26-9"
       style="fill:#1696d2;stroke-width:0.173535" />
    <path
       class="st2"
       d="m 151.1994,182.56546 h 3.1367 c 1.43048,0 2.89543,0.34947 2.89543,2.0793 0,0.66397 -0.32745,1.31048 -0.96515,1.52015 v 0.0523 c 0.81003,0.29705 1.30983,0.89113 1.30983,1.78226 0,1.53762 -1.41322,2.06183 -2.70583,2.06183 h -3.65373 v -7.49595 z m 2.74031,2.88305 c 0.39639,0 0.82726,-0.035 0.82726,-0.55913 0,-0.55914 -0.4998,-0.52419 -0.89621,-0.52419 h -0.18957 v 1.08332 z m -0.24128,2.83064 h 0.31021 c 0.44811,0 1.08579,-0.0175 1.08579,-0.62903 0,-0.61155 -0.68938,-0.61155 -1.12024,-0.61155 h -0.25854 z"
       id="path28-7"
       style="fill:#1696d2;stroke-width:0.173535" />
    <path
       class="st2"
       d="m 161.95381,190.06141 h -2.84372 l 2.56796,-7.49595 h 2.98159 l 2.63691,7.51341 h -2.84372 l -0.24128,-0.94354 h -2.03368 z m 1.77518,-2.70833 -0.31025,-1.32796 c -0.0861,-0.31451 -0.12067,-0.6465 -0.17232,-0.96101 h -0.1034 l -0.48257,2.28897 z"
       id="path30-7"
       style="fill:#1696d2;stroke-width:0.173535" />
    <path
       class="st2"
       d="m 169.07172,182.56546 h 2.58519 l 2.41285,4.1586 h 0.0862 c -0.12068,-0.62904 -0.20681,-1.27555 -0.22404,-1.90457 v -2.25403 h 2.56795 v 7.51341 h -2.56795 l -2.36115,-3.94891 h -0.086 c 0.1034,0.48925 0.15511,0.99596 0.17234,1.50269 v 2.44622 h -2.58518 z"
       id="path32-8"
       style="fill:#1696d2;stroke-width:0.173535" />
    <rect
       x="159.49544"
       y="179.93756"
       class="st3"
       width="0.83067834"
       height="0.72293222"
       id="rect50-5"
       style="fill:#9d9fa2;stroke-width:0.176122" />
    <rect
       x="164.51726"
       y="179.93756"
       class="st3"
       width="0.83067834"
       height="0.72293222"
       id="rect52-2"
       style="fill:#9d9fa2;stroke-width:0.176122" />
    <rect
       x="144.39221"
       y="179.93756"
       class="st3"
       width="0.83067834"
       height="0.72293222"
       id="rect54-1"
       style="fill:#9d9fa2;stroke-width:0.176122" />
    <rect
       x="149.41403"
       y="179.93756"
       class="st3"
       width="0.83067834"
       height="0.72293222"
       id="rect56-3"
       style="fill:#9d9fa2;stroke-width:0.176122" />
    <rect
       x="154.45471"
       y="179.93756"
       class="st3"
       width="0.83067834"
       height="0.72293222"
       id="rect58-6"
       style="fill:#9d9fa2;stroke-width:0.176122" />
    <rect
       x="139.3515"
       y="179.93756"
       class="st3"
       width="0.83067834"
       height="0.72293222"
       id="rect60-5"
       style="fill:#9d9fa2;stroke-width:0.176122" />
    <rect
       x="159.49544"
       y="197.46867"
       class="st3"
       width="0.83067834"
       height="0.72293222"
       id="rect62-2"
       style="fill:#9d9fa2;stroke-width:0.176122" />
    <rect
       x="164.51726"
       y="197.46867"
       class="st3"
       width="0.83067834"
       height="0.72293222"
       id="rect64-4"
       style="fill:#9d9fa2;stroke-width:0.176122" />
    <rect
       x="144.39221"
       y="197.46867"
       class="st3"
       width="0.83067834"
       height="0.72293222"
       id="rect66-9"
       style="fill:#9d9fa2;stroke-width:0.176122" />
    <rect
       x="149.41403"
       y="197.46867"
       class="st3"
       width="0.83067834"
       height="0.72293222"
       id="rect68-6"
       style="fill:#9d9fa2;stroke-width:0.176122" />
    <rect
       x="154.45471"
       y="197.46867"
       class="st3"
       width="0.83067834"
       height="0.72293222"
       id="rect70-8"
       style="fill:#9d9fa2;stroke-width:0.176122" />
    <rect
       x="139.3515"
       y="197.46867"
       class="st3"
       width="0.83067834"
       height="0.72293222"
       id="rect72-4"
       style="fill:#9d9fa2;stroke-width:0.176122" />
    <rect
       x="154.45471"
       y="179.93756"
       class="st3"
       width="0.83067834"
       height="0.72293222"
       id="rect80-9"
       style="fill:#9d9fa2;stroke-width:0.176122" />
    <rect
       x="159.49544"
       y="179.93756"
       class="st3"
       width="0.83067834"
       height="0.72293222"
       id="rect82-7"
       style="fill:#9d9fa2;stroke-width:0.176122" />
    <rect
       x="164.51726"
       y="179.93756"
       class="st3"
       width="0.83067834"
       height="0.72293222"
       id="rect84-5"
       style="fill:#9d9fa2;stroke-width:0.176122" />
    <rect
       x="139.3515"
       y="179.93756"
       class="st3"
       width="0.83067834"
       height="0.72293222"
       id="rect86-3"
       style="fill:#9d9fa2;stroke-width:0.176122" />
    <rect
       x="144.39221"
       y="179.93756"
       class="st3"
       width="0.83067834"
       height="0.72293222"
       id="rect88-1"
       style="fill:#9d9fa2;stroke-width:0.176122" />
    <rect
       x="149.41403"
       y="179.93756"
       class="st3"
       width="0.83067834"
       height="0.72293222"
       id="rect90-2"
       style="fill:#9d9fa2;stroke-width:0.176122" />
    <rect
       x="134.31078"
       y="179.93756"
       class="st3"
       width="0.83067834"
       height="0.72293222"
       id="rect92-6"
       style="fill:#9d9fa2;stroke-width:0.176122" />
    <rect
       x="134.31078"
       y="197.46867"
       class="st3"
       width="0.83067834"
       height="0.72293222"
       id="rect94-5"
       style="fill:#9d9fa2;stroke-width:0.176122" />
    <rect
       x="134.31078"
       y="193.0818"
       class="st3"
       width="0.83067834"
       height="0.72293222"
       id="rect96-2"
       style="fill:#9d9fa2;stroke-width:0.176122" />
    <rect
       x="149.41403"
       y="179.93756"
       class="st3"
       width="0.83067834"
       height="0.72293222"
       id="rect102-2"
       style="fill:#9d9fa2;stroke-width:0.176122" />
    <rect
       x="154.45471"
       y="179.93756"
       class="st3"
       width="0.83067834"
       height="0.72293222"
       id="rect104-2"
       style="fill:#9d9fa2;stroke-width:0.176122" />
    <rect
       x="159.49544"
       y="179.93756"
       class="st3"
       width="0.83067834"
       height="0.72293222"
       id="rect106-5"
       style="fill:#9d9fa2;stroke-width:0.176122" />
    <rect
       x="164.51726"
       y="179.93756"
       class="st3"
       width="0.83067834"
       height="0.72293222"
       id="rect108-8"
       style="fill:#9d9fa2;stroke-width:0.176122" />
    <rect
       x="134.31078"
       y="179.93756"
       class="st3"
       width="0.83067834"
       height="0.72293222"
       id="rect110-7"
       style="fill:#9d9fa2;stroke-width:0.176122" />
    <rect
       x="139.3515"
       y="179.93756"
       class="st3"
       width="0.83067834"
       height="0.72293222"
       id="rect112-9"
       style="fill:#9d9fa2;stroke-width:0.176122" />
    <rect
       x="144.39221"
       y="179.93756"
       class="st3"
       width="0.83067834"
       height="0.72293222"
       id="rect114-3"
       style="fill:#9d9fa2;stroke-width:0.176122" />
    <rect
       x="159.49544"
       y="201.85556"
       class="st3"
       width="0.83067834"
       height="0.72293222"
       id="rect116-5"
       style="fill:#9d9fa2;stroke-width:0.176122" />
    <rect
       x="164.51726"
       y="201.85556"
       class="st3"
       width="0.83067834"
       height="0.72293222"
       id="rect118-3"
       style="fill:#9d9fa2;stroke-width:0.176122" />
    <rect
       x="144.39221"
       y="201.85556"
       class="st3"
       width="0.83067834"
       height="0.72293222"
       id="rect120-5"
       style="fill:#9d9fa2;stroke-width:0.176122" />
    <rect
       x="149.41403"
       y="201.85556"
       class="st3"
       width="0.83067834"
       height="0.72293222"
       id="rect122-5"
       style="fill:#9d9fa2;stroke-width:0.176122" />
    <rect
       x="154.45471"
       y="201.85556"
       class="st3"
       width="0.83067834"
       height="0.72293222"
       id="rect124-0"
       style="fill:#9d9fa2;stroke-width:0.176122" />
    <rect
       x="139.3515"
       y="201.85556"
       class="st3"
       width="0.83067834"
       height="0.72293222"
       id="rect126-1"
       style="fill:#9d9fa2;stroke-width:0.176122" />
    <rect
       x="134.31078"
       y="201.85556"
       class="st3"
       width="0.83067834"
       height="0.72293222"
       id="rect128-5"
       style="fill:#9d9fa2;stroke-width:0.176122" />
    <rect
       x="129.28896"
       y="179.93756"
       class="st3"
       width="0.83067834"
       height="0.72293222"
       id="rect130-8"
       style="fill:#9d9fa2;stroke-width:0.176122" />
    <rect
       x="129.28896"
       y="197.46867"
       class="st3"
       width="0.83067834"
       height="0.72293222"
       id="rect132-7"
       style="fill:#9d9fa2;stroke-width:0.176122" />
    <rect
       x="129.28896"
       y="201.85556"
       class="st3"
       width="0.83067834"
       height="0.72293222"
       id="rect134-5"
       style="fill:#9d9fa2;stroke-width:0.176122" />
    <rect
       x="129.28896"
       y="193.0818"
       class="st3"
       width="0.83067834"
       height="0.72293222"
       id="rect136-1"
       style="fill:#9d9fa2;stroke-width:0.176122" />
    <rect
       x="129.28896"
       y="188.71135"
       class="st3"
       width="0.83067834"
       height="0.72293222"
       id="rect138-1"
       style="fill:#9d9fa2;stroke-width:0.176122" />
    <rect
       x="129.28896"
       y="184.32446"
       class="st3"
       width="0.83067834"
       height="0.72293222"
       id="rect140-6"
       style="fill:#9d9fa2;stroke-width:0.176122" />
    <rect
       x="159.49544"
       y="175.56712"
       class="st3"
       width="0.83067834"
       height="0.72293222"
       id="rect144-0"
       style="fill:#9d9fa2;stroke-width:0.176122" />
    <rect
       x="164.51726"
       y="175.56712"
       class="st3"
       width="0.83067834"
       height="0.72293222"
       id="rect146-2"
       style="fill:#9d9fa2;stroke-width:0.176122" />
    <rect
       x="144.39221"
       y="175.56712"
       class="st3"
       width="0.83067834"
       height="0.72293222"
       id="rect148-3"
       style="fill:#9d9fa2;stroke-width:0.176122" />
    <rect
       x="149.41403"
       y="175.56712"
       class="st3"
       width="0.83067834"
       height="0.72293222"
       id="rect150-6"
       style="fill:#9d9fa2;stroke-width:0.176122" />
    <rect
       x="154.45471"
       y="175.56712"
       class="st3"
       width="0.83067834"
       height="0.72293222"
       id="rect152-6"
       style="fill:#9d9fa2;stroke-width:0.176122" />
    <rect
       x="139.3515"
       y="175.56712"
       class="st3"
       width="0.83067834"
       height="0.72293222"
       id="rect154-6"
       style="fill:#9d9fa2;stroke-width:0.176122" />
    <rect
       x="134.31078"
       y="175.56712"
       class="st3"
       width="0.83067834"
       height="0.72293222"
       id="rect156-1"
       style="fill:#9d9fa2;stroke-width:0.176122" />
    <rect
       x="129.28896"
       y="175.56712"
       class="st3"
       width="0.83067834"
       height="0.72293222"
       id="rect158-1"
       style="fill:#9d9fa2;stroke-width:0.176122" />
  </g>
</svg>
