<?xml version="1.0" encoding="UTF-8" standalone="no"?>
<!-- Created with Inkscape (http://www.inkscape.org/) -->

<svg
   width="210mm"
   height="297mm"
   viewBox="0 0 210 297"
   version="1.1"
   id="svg1043"
   inkscape:version="1.2.2 (732a01da63, 2022-12-09)"
   sodipodi:docname="np-trends-mockup.svg"
   xmlns:inkscape="http://www.inkscape.org/namespaces/inkscape"
   xmlns:sodipodi="http://sodipodi.sourceforge.net/DTD/sodipodi-0.dtd"
   xmlns="http://www.w3.org/2000/svg"
   xmlns:svg="http://www.w3.org/2000/svg">
  <sodipodi:namedview
     id="namedview1045"
     pagecolor="#ffffff"
     bordercolor="#000000"
     borderopacity="0.25"
     inkscape:showpageshadow="2"
     inkscape:pageopacity="0.0"
     inkscape:pagecheckerboard="0"
     inkscape:deskcolor="#d1d1d1"
     inkscape:document-units="mm"
     showgrid="false"
     inkscape:zoom="1.466344"
     inkscape:cx="549.3254"
     inkscape:cy="580.35495"
     inkscape:window-width="1920"
     inkscape:window-height="1009"
     inkscape:window-x="1912"
     inkscape:window-y="-8"
     inkscape:window-maximized="1"
     inkscape:current-layer="layer1" />
  <defs
     id="defs1040" />
  <g
     inkscape:label="Layer 1"
     inkscape:groupmode="layer"
     id="layer1">
    <rect
       style="fill:#1273a1;fill-opacity:1;stroke-width:0.264583"
       id="rect2417"
       width="133.5237"
       height="136.41069"
       x="36.809231"
       y="81.557716" />
    <rect
       style="fill:none;fill-opacity:0.937255;stroke-width:0.260191"
       id="rect11502-4-1"
       width="59.201077"
       height="59.966606"
       x="76.496658"
       y="145.62816"
       inkscape:export-filename="..\..\..\..\..\Desktop\nccs-handbook\img\logo-white.png"
       inkscape:export-xdpi="96"
       inkscape:export-ydpi="96" />
    <text
       xml:space="preserve"
       style="font-style:normal;font-variant:normal;font-weight:normal;font-stretch:normal;font-size:14.1111px;line-height:0;font-family:'Century Gothic';-inkscape-font-specification:'Century Gothic';fill:#ffffff;fill-opacity:1;stroke-width:0.264583"
       x="105.60894"
       y="148.59908"
       id="text6981-9-4"><tspan
         sodipodi:role="line"
         style="font-style:normal;font-variant:normal;font-weight:normal;font-stretch:normal;font-size:14.1111px;line-height:1.25;font-family:Bahnschrift;-inkscape-font-specification:Bahnschrift;text-align:center;letter-spacing:0.529167px;word-spacing:0.00529167px;text-anchor:middle;fill:#ffe680;fill-opacity:1;stroke-width:0.264583"
         x="105.87352"
         y="148.59908"
         id="tspan14495-0">nonprofit</tspan></text>
    <text
       xml:space="preserve"
       style="font-style:normal;font-variant:normal;font-weight:normal;font-stretch:normal;font-size:14.8167px;line-height:0;font-family:'Century Gothic';-inkscape-font-specification:'Century Gothic';fill:#ffffff;fill-opacity:1;stroke-width:0.264583"
       x="106.16591"
       y="162.12386"
       id="text6981-9-2-3"><tspan
         sodipodi:role="line"
         style="font-style:normal;font-variant:normal;font-weight:normal;font-stretch:normal;font-size:14.8167px;line-height:0.7;font-family:'Bauhaus 93';-inkscape-font-specification:'Bauhaus 93, ';text-align:center;letter-spacing:2.38125px;word-spacing:0.00529167px;text-anchor:middle;fill:#ffe680;fill-opacity:1;stroke-width:0.264583"
         x="107.35653"
         y="162.12386"
         id="tspan14495-2-9">TRENDS</tspan></text>
    <path
       class="st1"
       d="m 88.672494,118.27311 h 0.92006 v 2.55845 h -0.92006 z"
       id="path6-4"
       style="fill:#ffffff;fill-opacity:1;stroke-width:0.180927" />
    <path
       class="st1"
       d="m 92.713514,118.27311 h 0.88396 l 0.82984,1.43347 h 0.0181 c -0.0362,-0.21772 -0.0723,-0.43549 -0.0723,-0.65323 v -0.76207 h 0.88399 v 2.54028 h -0.88397 l -0.81179,-1.3427 h -0.0181 c 0.0362,0.16331 0.0542,0.34474 0.0542,0.50805 v 0.83465 h -0.88399 z"
       id="path8-4"
       style="fill:#ffffff;fill-opacity:1;stroke-width:0.180927" />
    <path
       class="st1"
       d="m 98.035364,119.92432 0.0542,0.0365 c 0.16236,0.14519 0.36081,0.21774 0.5773,0.2359 0.0902,0 0.23451,-0.0365 0.23451,-0.1452 0,-0.10885 -0.12632,-0.12705 -0.19844,-0.14512 l -0.1804,-0.0365 c -0.36079,-0.0724 -0.66748,-0.27219 -0.66748,-0.68952 0,-0.61693 0.55925,-0.94355 1.10046,-0.94355 0.28863,0 0.55922,0.0724 0.8118,0.21778 l -0.25258,0.65318 c -0.16236,-0.12704 -0.34273,-0.18143 -0.5412,-0.19956 -0.0723,0 -0.19842,0.0365 -0.19842,0.14514 0,0.10891 0.10834,0.10891 0.1804,0.12705 l 0.21649,0.0543 c 0.39686,0.0909 0.68551,0.30849 0.68551,0.74401 0,0.61693 -0.55926,0.92537 -1.10047,0.92537 -0.34274,0 -0.66747,-0.0909 -0.97416,-0.2359 z"
       id="path10-5"
       style="fill:#ffffff;fill-opacity:1;stroke-width:0.180927" />
    <path
       class="st1"
       d="m 102.72579,118.27311 h 1.94837 v 0.83467 l -0.50514,-0.018 v 1.76009 h -0.92003 v -1.76009 l -0.50514,0.018 v -0.83467 z"
       id="path12-2"
       style="fill:#ffffff;fill-opacity:1;stroke-width:0.180927" />
    <path
       class="st1"
       d="m 107.92133,118.27311 h 0.9201 v 2.55845 h -0.9201 z"
       id="path14-4"
       style="fill:#ffffff;fill-opacity:1;stroke-width:0.180927" />
    <path
       class="st1"
       d="m 112.14286,118.27311 h 1.94836 v 0.83467 l -0.50519,-0.018 v 1.76009 h -0.92018 v -1.76009 l -0.50508,0.018 v -0.83467 z"
       id="path16-9"
       style="fill:#ffffff;fill-opacity:1;stroke-width:0.180927" />
    <path
       class="st1"
       d="m 119.28674,118.27311 v 1.52419 c 0,0.74395 -0.46912,1.08874 -1.19076,1.08874 -0.72139,0 -1.19049,-0.34479 -1.19049,-1.08874 v -1.52419 h 0.91995 v 1.43347 c 0,0.19962 0,0.38104 0.25265,0.38104 0.25239,0 0.25239,-0.18142 0.25239,-0.38104 v -1.43347 z"
       id="path18-1"
       style="fill:#ffffff;fill-opacity:1;stroke-width:0.180927" />
    <path
       class="st1"
       d="m 121.75828,118.27311 h 1.94832 v 0.83467 l -0.50505,-0.018 v 1.76009 h -0.92013 v -1.76009 l -0.50523,0.018 v -0.83467 z"
       id="path20-3"
       style="fill:#ffffff;fill-opacity:1;stroke-width:0.180927" />
    <path
       class="st1"
       d="m 126.7374,118.27311 h 1.71383 v 0.70766 h -0.77587 v 0.25401 h 0.72171 v 0.67142 h -0.72171 v 0.25401 h 0.81189 v 0.68953 h -1.74985 z"
       id="path22-7"
       style="fill:#ffffff;fill-opacity:1;stroke-width:0.180927" />
    <path
       class="st2"
       d="m 89.610604,107.40422 v 4.60885 c 0,2.26813 -1.42521,3.30238 -3.59001,3.30238 -2.16483,0 -3.59,-1.03425 -3.59,-3.30238 v -4.60885 h 2.81428 v 4.33665 c 0,0.61694 0.0181,1.14315 0.77572,1.14315 0.75767,0 0.77574,-0.54433 0.77574,-1.14315 v -4.33665 z"
       id="path24-8"
       style="fill:#ffffff;fill-opacity:1;stroke-width:0.180927" />
    <path
       class="st2"
       d="m 92.551154,107.40422 h 3.4096 c 1.7499,0 3.22919,0.74394 3.22919,2.70362 0,1.1794 -0.45099,1.66932 -1.49734,2.03223 v 0.0545 c 0.1804,0.12707 0.34276,0.29032 0.46904,0.47176 l 1.67776,2.54033 h -3.24725 l -1.22674,-2.50404 h -0.0542 v 2.50404 h -2.76013 z m 2.74211,3.44757 h 0.19842 c 0.46907,0 0.92008,-0.0724 0.92008,-0.65323 0,-0.58064 -0.41494,-0.67135 -0.90201,-0.67135 h -0.21649 z"
       id="path26-9"
       style="fill:#ffffff;fill-opacity:1;stroke-width:0.180927" />
    <path
       class="st2"
       d="m 101.98618,107.40422 h 3.28333 c 1.49727,0 3.03078,0.36292 3.03078,2.15929 0,0.68947 -0.34283,1.36088 -1.01033,1.5786 v 0.0543 c 0.84783,0.3085 1.37115,0.92543 1.37115,1.85081 0,1.59677 -1.4793,2.14113 -2.83233,2.14113 h -3.82453 v -7.78424 z m 2.86847,2.99394 c 0.41486,0 0.86584,-0.0365 0.86584,-0.58063 0,-0.58064 -0.5232,-0.54439 -0.93813,-0.54439 h -0.19839 v 1.12502 z m -0.25266,2.93949 h 0.32476 c 0.46899,0 1.13648,-0.018 1.13648,-0.65323 0,-0.63505 -0.72159,-0.63505 -1.17265,-0.63505 h -0.27049 z"
       id="path28-7"
       style="fill:#ffffff;fill-opacity:1;stroke-width:0.180927" />
    <path
       class="st2"
       d="m 113.24327,115.18846 h -2.97665 l 2.68798,-7.78424 h 3.121 l 2.76019,7.8024 h -2.97671 l -0.25247,-0.97984 h -2.12882 z m 1.85811,-2.81248 -0.32475,-1.37906 c -0.0901,-0.32661 -0.12633,-0.67135 -0.18036,-0.99796 h -0.1082 l -0.50525,2.37702 z"
       id="path30-7"
       style="fill:#ffffff;fill-opacity:1;stroke-width:0.180927" />
    <path
       class="st2"
       d="m 120.69383,107.40422 h 2.70607 l 2.52552,4.31854 h 0.0902 c -0.12646,-0.65324 -0.21646,-1.3246 -0.23447,-1.97782 v -2.34072 h 2.68804 v 7.8024 h -2.68804 l -2.47168,-4.10081 h -0.09 c 0.10807,0.50805 0.16231,1.03426 0.18032,1.56049 v 2.54032 h -2.70605 z"
       id="path32-8"
       style="fill:#ffffff;fill-opacity:1;stroke-width:0.180927" />
    <rect
       x="111.2624"
       y="103.79084"
       class="st3"
       width="0.90733862"
       height="0.79518718"
       id="rect50-5"
       style="fill:#ffffff;fill-opacity:1;stroke-width:0.193052" />
    <rect
       x="116.7477"
       y="103.79084"
       class="st3"
       width="0.90733862"
       height="0.79518718"
       id="rect52-2"
       style="fill:#ffffff;fill-opacity:1;stroke-width:0.193052" />
    <rect
       x="94.765327"
       y="103.79084"
       class="st3"
       width="0.90733862"
       height="0.79518718"
       id="rect54-1"
       style="fill:#ffffff;fill-opacity:1;stroke-width:0.193052" />
    <rect
       x="100.25059"
       y="103.79084"
       class="st3"
       width="0.90733862"
       height="0.79518718"
       id="rect56-3"
       style="fill:#ffffff;fill-opacity:1;stroke-width:0.193052" />
    <rect
       x="105.75648"
       y="103.79084"
       class="st3"
       width="0.90733862"
       height="0.79518718"
       id="rect58-6"
       style="fill:#ffffff;fill-opacity:1;stroke-width:0.193052" />
    <rect
       x="89.259438"
       y="103.79084"
       class="st3"
       width="0.90733862"
       height="0.79518718"
       id="rect60-5"
       style="fill:#ffffff;fill-opacity:1;stroke-width:0.193052" />
    <rect
       x="111.2624"
       y="123.07417"
       class="st3"
       width="0.90733862"
       height="0.79518718"
       id="rect62-2"
       style="fill:#ffffff;fill-opacity:1;stroke-width:0.193052" />
    <rect
       x="116.7477"
       y="123.07417"
       class="st3"
       width="0.90733862"
       height="0.79518718"
       id="rect64-4"
       style="fill:#ffffff;fill-opacity:1;stroke-width:0.193052" />
    <rect
       x="94.765327"
       y="123.07417"
       class="st3"
       width="0.90733862"
       height="0.79518718"
       id="rect66-9"
       style="fill:#ffffff;fill-opacity:1;stroke-width:0.193052" />
    <rect
       x="100.25059"
       y="123.07417"
       class="st3"
       width="0.90733862"
       height="0.79518718"
       id="rect68-6"
       style="fill:#ffffff;fill-opacity:1;stroke-width:0.193052" />
    <rect
       x="105.75648"
       y="123.07417"
       class="st3"
       width="0.90733862"
       height="0.79518718"
       id="rect70-8"
       style="fill:#ffffff;fill-opacity:1;stroke-width:0.193052" />
    <rect
       x="89.259438"
       y="123.07417"
       class="st3"
       width="0.90733862"
       height="0.79518718"
       id="rect72-4"
       style="fill:#ffffff;fill-opacity:1;stroke-width:0.193052" />
    <rect
       x="105.75648"
       y="103.79084"
       class="st3"
       width="0.90733862"
       height="0.79518718"
       id="rect80-9"
       style="fill:#ffffff;fill-opacity:1;stroke-width:0.193052" />
    <rect
       x="111.2624"
       y="103.79084"
       class="st3"
       width="0.90733862"
       height="0.79518718"
       id="rect82-7"
       style="fill:#ffffff;fill-opacity:1;stroke-width:0.193052" />
    <rect
       x="116.7477"
       y="103.79084"
       class="st3"
       width="0.90733862"
       height="0.79518718"
       id="rect84-5"
       style="fill:#ffffff;fill-opacity:1;stroke-width:0.193052" />
    <rect
       x="89.259438"
       y="103.79084"
       class="st3"
       width="0.90733862"
       height="0.79518718"
       id="rect86-3"
       style="fill:#ffffff;fill-opacity:1;stroke-width:0.193052" />
    <rect
       x="94.765327"
       y="103.79084"
       class="st3"
       width="0.90733862"
       height="0.79518718"
       id="rect88-1"
       style="fill:#ffffff;fill-opacity:1;stroke-width:0.193052" />
    <rect
       x="100.25059"
       y="103.79084"
       class="st3"
       width="0.90733862"
       height="0.79518718"
       id="rect90-2"
       style="fill:#ffffff;fill-opacity:1;stroke-width:0.193052" />
    <rect
       x="83.753487"
       y="103.79084"
       class="st3"
       width="0.90733862"
       height="0.79518718"
       id="rect92-6"
       style="fill:#ffffff;fill-opacity:1;stroke-width:0.193052" />
    <rect
       x="83.753487"
       y="123.07417"
       class="st3"
       width="0.90733862"
       height="0.79518718"
       id="rect94-5"
       style="fill:#ffffff;fill-opacity:1;stroke-width:0.193052" />
    <rect
       x="83.753487"
       y="118.24889"
       class="st3"
       width="0.90733862"
       height="0.79518718"
       id="rect96-2"
       style="fill:#ffffff;fill-opacity:1;stroke-width:0.193052" />
    <rect
       x="100.25059"
       y="103.79084"
       class="st3"
       width="0.90733862"
       height="0.79518718"
       id="rect102-2"
       style="fill:#ffffff;fill-opacity:1;stroke-width:0.193052" />
    <rect
       x="105.75648"
       y="103.79084"
       class="st3"
       width="0.90733862"
       height="0.79518718"
       id="rect104-2"
       style="fill:#ffffff;fill-opacity:1;stroke-width:0.193052" />
    <rect
       x="111.2624"
       y="103.79084"
       class="st3"
       width="0.90733862"
       height="0.79518718"
       id="rect106-5"
       style="fill:#ffffff;fill-opacity:1;stroke-width:0.193052" />
    <rect
       x="116.7477"
       y="103.79084"
       class="st3"
       width="0.90733862"
       height="0.79518718"
       id="rect108-8"
       style="fill:#ffffff;fill-opacity:1;stroke-width:0.193052" />
    <rect
       x="83.753487"
       y="103.79084"
       class="st3"
       width="0.90733862"
       height="0.79518718"
       id="rect110-7"
       style="fill:#ffffff;fill-opacity:1;stroke-width:0.193052" />
    <rect
       x="89.259438"
       y="103.79084"
       class="st3"
       width="0.90733862"
       height="0.79518718"
       id="rect112-9"
       style="fill:#ffffff;fill-opacity:1;stroke-width:0.193052" />
    <rect
       x="94.765327"
       y="103.79084"
       class="st3"
       width="0.90733862"
       height="0.79518718"
       id="rect114-3"
       style="fill:#ffffff;fill-opacity:1;stroke-width:0.193052" />
    <rect
       x="111.2624"
       y="127.89947"
       class="st3"
       width="0.90733862"
       height="0.79518718"
       id="rect116-5"
       style="fill:#ffffff;fill-opacity:1;stroke-width:0.193052" />
    <rect
       x="116.7477"
       y="127.89947"
       class="st3"
       width="0.90733862"
       height="0.79518718"
       id="rect118-3"
       style="fill:#ffffff;fill-opacity:1;stroke-width:0.193052" />
    <rect
       x="94.765327"
       y="127.89947"
       class="st3"
       width="0.90733862"
       height="0.79518718"
       id="rect120-5"
       style="fill:#ffffff;fill-opacity:1;stroke-width:0.193052" />
    <rect
       x="100.25059"
       y="127.89947"
       class="st3"
       width="0.90733862"
       height="0.79518718"
       id="rect122-5"
       style="fill:#ffffff;fill-opacity:1;stroke-width:0.193052" />
    <rect
       x="105.75648"
       y="127.89947"
       class="st3"
       width="0.90733862"
       height="0.79518718"
       id="rect124-0"
       style="fill:#ffffff;fill-opacity:1;stroke-width:0.193052" />
    <rect
       x="89.259438"
       y="127.89947"
       class="st3"
       width="0.90733862"
       height="0.79518718"
       id="rect126-1"
       style="fill:#ffffff;fill-opacity:1;stroke-width:0.193052" />
    <rect
       x="83.753487"
       y="127.89947"
       class="st3"
       width="0.90733862"
       height="0.79518718"
       id="rect128-5"
       style="fill:#ffffff;fill-opacity:1;stroke-width:0.193052" />
    <rect
       x="78.26825"
       y="103.79084"
       class="st3"
       width="0.90733862"
       height="0.79518718"
       id="rect130-8"
       style="fill:#ffffff;fill-opacity:1;stroke-width:0.193052" />
    <rect
       x="78.26825"
       y="123.07417"
       class="st3"
       width="0.90733862"
       height="0.79518718"
       id="rect132-7"
       style="fill:#ffffff;fill-opacity:1;stroke-width:0.193052" />
    <rect
       x="78.26825"
       y="127.89947"
       class="st3"
       width="0.90733862"
       height="0.79518718"
       id="rect134-5"
       style="fill:#ffffff;fill-opacity:1;stroke-width:0.193052" />
    <rect
       x="111.2813"
       y="132.76311"
       class="st3"
       width="0.90733862"
       height="0.79518718"
       id="rect116-5-8"
       style="fill:#ffffff;fill-opacity:1;stroke-width:0.193052" />
    <rect
       x="116.76669"
       y="132.76311"
       class="st3"
       width="0.90733862"
       height="0.79518718"
       id="rect118-3-4"
       style="fill:#ffffff;fill-opacity:1;stroke-width:0.193052" />
    <rect
       x="94.784218"
       y="132.76311"
       class="st3"
       width="0.90733862"
       height="0.79518718"
       id="rect120-5-3"
       style="fill:#ffffff;fill-opacity:1;stroke-width:0.193052" />
    <rect
       x="100.2694"
       y="132.76311"
       class="st3"
       width="0.90733862"
       height="0.79518718"
       id="rect122-5-1"
       style="fill:#ffffff;fill-opacity:1;stroke-width:0.193052" />
    <rect
       x="105.77529"
       y="132.76311"
       class="st3"
       width="0.90733862"
       height="0.79518718"
       id="rect124-0-0"
       style="fill:#ffffff;fill-opacity:1;stroke-width:0.193052" />
    <rect
       x="89.278267"
       y="132.76311"
       class="st3"
       width="0.90733862"
       height="0.79518718"
       id="rect126-1-8"
       style="fill:#ffffff;fill-opacity:1;stroke-width:0.193052" />
    <rect
       x="83.772301"
       y="132.76311"
       class="st3"
       width="0.90733862"
       height="0.79518718"
       id="rect128-5-4"
       style="fill:#ffffff;fill-opacity:1;stroke-width:0.193052" />
    <rect
       x="78.287033"
       y="132.76311"
       class="st3"
       width="0.90733862"
       height="0.79518718"
       id="rect134-5-5"
       style="fill:#ffffff;fill-opacity:1;stroke-width:0.193052" />
    <rect
       x="78.26825"
       y="118.24889"
       class="st3"
       width="0.90733862"
       height="0.79518718"
       id="rect136-1"
       style="fill:#ffffff;fill-opacity:1;stroke-width:0.193052" />
    <rect
       x="78.26825"
       y="113.44151"
       class="st3"
       width="0.90733862"
       height="0.79518718"
       id="rect138-1"
       style="fill:#ffffff;fill-opacity:1;stroke-width:0.193052" />
    <rect
       x="78.26825"
       y="108.61613"
       class="st3"
       width="0.90733862"
       height="0.79518718"
       id="rect140-6"
       style="fill:#ffffff;fill-opacity:1;stroke-width:0.193052" />
    <rect
       x="111.2624"
       y="98.983612"
       class="st3"
       width="0.90733862"
       height="0.79518718"
       id="rect144-0"
       style="fill:#ffffff;fill-opacity:1;stroke-width:0.193052" />
    <rect
       x="116.7477"
       y="98.983612"
       class="st3"
       width="0.90733862"
       height="0.79518718"
       id="rect146-2"
       style="fill:#ffffff;fill-opacity:1;stroke-width:0.193052" />
    <rect
       x="94.765327"
       y="98.983612"
       class="st3"
       width="0.90733862"
       height="0.79518718"
       id="rect148-3"
       style="fill:#ffffff;fill-opacity:1;stroke-width:0.193052" />
    <rect
       x="100.25059"
       y="98.983612"
       class="st3"
       width="0.90733862"
       height="0.79518718"
       id="rect150-6"
       style="fill:#ffffff;fill-opacity:1;stroke-width:0.193052" />
    <rect
       x="105.75648"
       y="98.983612"
       class="st3"
       width="0.90733862"
       height="0.79518718"
       id="rect152-6"
       style="fill:#ffffff;fill-opacity:1;stroke-width:0.193052" />
    <rect
       x="89.259438"
       y="98.983612"
       class="st3"
       width="0.90733862"
       height="0.79518718"
       id="rect154-6"
       style="fill:#ffffff;fill-opacity:1;stroke-width:0.193052" />
    <rect
       x="83.753487"
       y="98.983612"
       class="st3"
       width="0.90733862"
       height="0.79518718"
       id="rect156-1"
       style="fill:#ffffff;fill-opacity:1;stroke-width:0.193052" />
    <rect
       x="78.26825"
       y="98.983612"
       class="st3"
       width="0.90733862"
       height="0.79518718"
       id="rect158-1"
       style="fill:#ffffff;fill-opacity:1;stroke-width:0.193052" />
    <text
       xml:space="preserve"
       style="font-weight:bold;font-size:14.8167px;line-height:0.7;font-family:sans-serif;-inkscape-font-specification:'sans-serif Bold';text-align:center;text-anchor:middle;fill:#ffffff;stroke-width:0.264583"
       x="106.81895"
       y="164.19806"
       id="text2384"><tspan
         sodipodi:role="line"
         style="fill:#ececec;stroke-width:0.264583"
         x="106.81895"
         y="164.19806"
         id="tspan2594" /><tspan
         sodipodi:role="line"
         style="font-size:12.7px;fill:#ececec;stroke-width:0.264583"
         x="106.81895"
         y="174.56975"
         id="tspan2592">research</tspan><tspan
         sodipodi:role="line"
         style="font-style:normal;font-variant:normal;font-weight:normal;font-stretch:normal;font-size:9.525px;font-family:sans-serif;-inkscape-font-specification:sans-serif;fill:#ececec;stroke-width:0.264583"
         x="106.81895"
         y="184.94144"
         id="tspan2386">methodology</tspan></text>
  </g>
</svg>
