<?xml version="1.0" encoding="UTF-8" standalone="no"?>
<!-- Created with Inkscape (http://www.inkscape.org/) -->

<svg
   width="210mm"
   height="297mm"
   viewBox="0 0 210 297"
   version="1.1"
   id="svg4892"
   inkscape:version="1.2.2 (732a01da63, 2022-12-09)"
   sodipodi:docname="researchg.svg"
   xmlns:inkscape="http://www.inkscape.org/namespaces/inkscape"
   xmlns:sodipodi="http://sodipodi.sourceforge.net/DTD/sodipodi-0.dtd"
   xmlns="http://www.w3.org/2000/svg"
   xmlns:svg="http://www.w3.org/2000/svg">
  <sodipodi:namedview
     id="namedview4894"
     pagecolor="#ffffff"
     bordercolor="#000000"
     borderopacity="0.25"
     inkscape:showpageshadow="2"
     inkscape:pageopacity="0.0"
     inkscape:pagecheckerboard="0"
     inkscape:deskcolor="#d1d1d1"
     inkscape:document-units="mm"
     showgrid="false"
     inkscape:zoom="2.0737236"
     inkscape:cx="391.80729"
     inkscape:cy="515.98006"
     inkscape:window-width="1920"
     inkscape:window-height="1009"
     inkscape:window-x="-8"
     inkscape:window-y="-8"
     inkscape:window-maximized="1"
     inkscape:current-layer="layer1" />
  <defs
     id="defs4889" />
  <g
     inkscape:label="Layer 1"
     inkscape:groupmode="layer"
     id="layer1">
    <rect
       style="fill:none;fill-opacity:0.937255;stroke-width:0.260191"
       id="rect11502-4-1"
       width="59.201077"
       height="59.966606"
       x="75.774918"
       y="136.10074"
       inkscape:export-filename="..\..\..\..\..\Downloads\test\img\urban-logo-v6.png"
       inkscape:export-xdpi="96"
       inkscape:export-ydpi="96" />
    <path
       fill="#99adb7"
       d="m 90.82962,160.43871 c 0,0.70326 -0.57017,1.27343 -1.27344,1.27343 h -6.155 c -0.70326,0 -1.27344,-0.57017 -1.27344,-1.27343 v -26.24694 c 0,-0.70352 0.57018,-1.27344 1.27344,-1.27344 h 6.155 c 0.70353,0 1.27344,0.57018 1.27344,1.27344 z"
       id="path490-4-6"
       style="fill:#0a4c6a;fill-opacity:1;stroke-width:0.264583" />
    <path
       fill="#4c7189"
       d="m 103.28144,159.9061 c 0,0.99748 -0.56991,1.80604 -1.27344,1.80604 h -6.15526 c -0.70326,0 -1.27344,-0.80856 -1.27344,-1.80604 v -31.69073 c 0,-0.99748 0.57018,-1.80605 1.27344,-1.80605 h 6.15526 c 0.70327,0 1.27344,0.80857 1.27344,1.80605 z"
       id="path492-8-0"
       style="fill:#0a4c6a;fill-opacity:1;stroke-width:0.264583" />
    <path
       fill="#99adb7"
       d="m 115.733,160.43871 c 0,0.70326 -0.57018,1.27343 -1.27344,1.27343 h -6.15527 c -0.70326,0 -1.27344,-0.57017 -1.27344,-1.27343 v -29.57222 c 0,-0.70326 0.56992,-1.27344 1.27344,-1.27344 h 6.15527 c 0.70326,0 1.27344,0.57018 1.27344,1.27344 z"
       id="path494-9-9"
       style="fill:#0a4c6a;fill-opacity:1;stroke-width:0.264583" />
    <path
       fill="#4c7189"
       d="m 128.18482,160.43871 c 0,0.70326 -0.56991,1.27343 -1.27344,1.27343 h -6.15526 c -0.70327,0 -1.27344,-0.57017 -1.27344,-1.27343 v -40.27885 c 0,-0.70326 0.57017,-1.27344 1.27344,-1.27344 h 6.15526 c 0.70326,0 1.27344,0.57018 1.27344,1.27344 z"
       id="path496-4-4"
       style="fill:#0a4c6a;fill-opacity:1;stroke-width:0.264583" />
    <path
       fill="#99adb7"
       d="m 92.30917,147.72204 h -1.71979 c -2.6e-4,0.57732 -0.11589,1.11839 -0.32517,1.61369 -0.31353,0.74189 -0.84164,1.37848 -1.50442,1.82589 -0.66384,0.44741 -1.45256,0.70644 -2.31722,0.70723 -0.57732,-2.6e-4 -1.1184,-0.11589 -1.6137,-0.32517 -0.74215,-0.31353 -1.37874,-0.84164 -1.82615,-1.50442 -0.44741,-0.66384 -0.70644,-1.45256 -0.70723,-2.31722 2.6e-4,-0.57732 0.11589,-1.1184 0.32517,-1.6137 0.31353,-0.74215 0.84164,-1.37874 1.50442,-1.82615 0.66384,-0.44741 1.45256,-0.70644 2.31749,-0.70723 0.57732,2.6e-4 1.11839,0.11589 1.61369,0.32517 0.74189,0.31353 1.37848,0.84164 1.82589,1.50442 0.44741,0.66384 0.70644,1.45256 0.70723,2.31749 h 1.71979 1.7198 c 7.9e-4,-2.08942 -0.85196,-3.99706 -2.22198,-5.36443 -1.36736,-1.37028 -3.27501,-2.22303 -5.36442,-2.22197 -2.08942,-7.9e-4 -3.99706,0.85169 -5.36443,2.22197 -1.37028,1.36737 -2.22276,3.27501 -2.22197,5.36443 -7.9e-4,2.08941 0.85169,3.99679 2.22197,5.36442 1.36737,1.37002 3.27475,2.22277 5.36443,2.22197 2.08941,8e-4 3.99679,-0.85195 5.36442,-2.22197 1.37002,-1.36736 2.22277,-3.27501 2.22198,-5.36442 z"
       id="path572-4-4"
       style="fill:#0a4c6a;fill-opacity:1;stroke-width:0.264583" />
    <circle
       fill="#f5f5f5"
       cx="86.442566"
       cy="147.72185"
       r="5.8666062"
       id="circle574-3-1"
       style="stroke-width:0.264583" />
    <path
       fill="#4c7189"
       d="m 104.79777,140.43382 h -1.71979 c -2.6e-4,0.57733 -0.11589,1.1184 -0.32517,1.6137 -0.31353,0.74189 -0.84164,1.37848 -1.50442,1.82589 -0.66384,0.44741 -1.45257,0.70644 -2.31749,0.70723 -0.57732,-2.7e-4 -1.11839,-0.11589 -1.61369,-0.32517 -0.74216,-0.31354 -1.37875,-0.84164 -1.82616,-1.50442 -0.44741,-0.66411 -0.70643,-1.45257 -0.70723,-2.31749 2.7e-4,-0.57732 0.11589,-1.11839 0.32517,-1.61369 0.31354,-0.74216 0.84164,-1.37875 1.50443,-1.82616 0.66383,-0.44741 1.45256,-0.70644 2.31748,-0.70723 0.57732,2.7e-4 1.11866,0.11589 1.61369,0.32517 0.7419,0.31353 1.37848,0.84164 1.82589,1.50442 0.44741,0.66384 0.70644,1.45257 0.70724,2.31749 h 1.72005 1.71979 c 8e-4,-2.08941 -0.85169,-3.99706 -2.22197,-5.36443 -1.36736,-1.37027 -3.27501,-2.22303 -5.36442,-2.22197 -2.08942,-7.9e-4 -3.99707,0.8517 -5.36443,2.22197 -1.37028,1.36737 -2.22277,3.27502 -2.22197,5.36443 -8e-4,2.08941 0.85169,3.99706 2.22197,5.36443 1.36736,1.37001 3.27501,2.22276 5.36443,2.22197 2.08941,7.9e-4 3.99706,-0.8517 5.36442,-2.22197 1.37028,-1.36737 2.22277,-3.27475 2.22197,-5.36443 h -1.71979 z"
       id="path576-5-9"
       style="fill:#0a4c6a;fill-opacity:1;stroke-width:0.264583" />
    <circle
       fill="#f5f5f5"
       cx="98.931152"
       cy="140.43364"
       r="5.8666062"
       id="circle578-6-2"
       style="stroke-width:0.264583" />
    <path
       fill="#99adb7"
       d="m 117.70071,142.79999 h -1.71979 c -2.7e-4,0.57732 -0.11589,1.1184 -0.32518,1.6137 -0.31353,0.74189 -0.84164,1.37848 -1.50442,1.82589 -0.6641,0.44741 -1.45256,0.70643 -2.31748,0.70723 -0.57732,-2.7e-4 -1.11866,-0.11589 -1.6137,-0.32518 -0.74215,-0.31353 -1.37874,-0.84163 -1.82615,-1.50442 -0.44741,-0.66384 -0.70644,-1.45256 -0.70723,-2.31722 2.6e-4,-0.57732 0.11588,-1.11839 0.32517,-1.61369 0.31353,-0.74189 0.84164,-1.37848 1.50442,-1.82615 0.6641,-0.44742 1.45256,-0.70644 2.31749,-0.70724 0.57732,2.7e-4 1.11865,0.11589 1.61369,0.32518 0.74216,0.31353 1.37874,0.84164 1.82615,1.50442 0.44715,0.66384 0.70644,1.45256 0.70724,2.31722 h 1.71979 1.71979 c 7.9e-4,-2.08942 -0.85196,-3.99706 -2.22197,-5.36443 -1.36763,-1.37028 -3.27501,-2.22276 -5.36443,-2.22197 -2.08941,-7.9e-4 -3.99706,0.85169 -5.36443,2.22197 -1.37027,1.36737 -2.22303,3.27501 -2.22197,5.36443 -7.9e-4,2.08941 0.85196,3.99679 2.22197,5.36443 1.36737,1.37027 3.27502,2.22276 5.36443,2.22197 2.08942,7.9e-4 3.9968,-0.8517 5.36443,-2.22197 1.37027,-1.36737 2.22276,-3.27475 2.22197,-5.36443 h -1.71979 z"
       id="path580-4-2"
       style="fill:#0a4c6a;fill-opacity:1;stroke-width:0.264583" />
    <circle
       fill="#f5f5f5"
       cx="111.83383"
       cy="142.7998"
       r="5.8668709"
       id="circle582-3-3"
       style="stroke-width:0.264583" />
    <path
       fill="#4c7189"
       d="m 130.45997,135.94543 h -1.71979 c -2.6e-4,0.57732 -0.11589,1.1184 -0.32517,1.6137 -0.31353,0.74189 -0.84164,1.37848 -1.50442,1.82615 -0.66411,0.44741 -1.45256,0.70644 -2.31749,0.70723 -0.57732,-2.6e-4 -1.11839,-0.11589 -1.61343,-0.32517 -0.74215,-0.31353 -1.37848,-0.84164 -1.82589,-1.50442 -0.44714,-0.66384 -0.70643,-1.45256 -0.70723,-2.31749 2.7e-4,-0.57732 0.11589,-1.11839 0.32518,-1.61369 0.31353,-0.74189 0.84164,-1.37848 1.50442,-1.82589 0.6641,-0.44741 1.45229,-0.70644 2.31722,-0.70723 0.57732,2.6e-4 1.11866,0.11589 1.61369,0.32517 0.74216,0.31353 1.37874,0.84164 1.82616,1.50442 0.44714,0.66384 0.70643,1.45256 0.70723,2.31722 h 1.71952 1.71979 c 8e-4,-2.08941 -0.85195,-3.99679 -2.22197,-5.36442 -1.36763,-1.37028 -3.27501,-2.22277 -5.36442,-2.22198 -2.08942,-7.9e-4 -3.9968,0.85196 -5.36417,2.22198 -1.37001,1.36736 -2.2225,3.27474 -2.2217,5.36416 -8e-4,2.08941 0.85196,3.99679 2.2217,5.36443 1.36737,1.37027 3.27475,2.22302 5.36417,2.22197 2.08941,7.9e-4 3.99679,-0.8517 5.36442,-2.22197 1.37028,-1.36737 2.22277,-3.27502 2.22197,-5.36443 h -1.71979 z"
       id="path584-4-9"
       style="fill:#0a4c6a;fill-opacity:1;stroke-width:0.264583" />
    <circle
       fill="#f5f5f5"
       cx="124.59335"
       cy="135.94525"
       r="5.8666062"
       id="circle586-9-0"
       style="stroke-width:0.264583" />
    <polyline
       fill="#f5f5f5"
       points="421.82,219.106 473.968,182.973 469.058,175.885 416.909,212.019  "
       id="polyline588-2-6"
       transform="matrix(0.26458333,0,0,0.26458333,-24.1411,91.230841)" />
    <polygon
       fill="#f5f5f5"
       points="575.122,152.694 521.152,192.977 477.586,178.177 474.473,186.218 522.738,202.837 580.6,159.354 "
       id="polygon590-2-5"
       transform="matrix(0.26458333,0,0,0.26458333,-24.1411,91.230841)" />
    <polygon
       fill="#4c7189"
       points="429.114,224.067 424.81,224.067 413.514,210.312 413.514,224.067 408.336,224.067 408.336,201.412 412.673,201.412 423.936,215.167 423.936,201.412 429.114,201.412 "
       id="polygon592-1-8"
       transform="matrix(0.26458333,0,0,0.26458333,-24.1411,91.230841)"
       style="fill:#0a4c6a;fill-opacity:1" />
    <path
       fill="#99adb7"
       d="m 96.04456,140.55395 c 0,-1.80684 1.38721,-3.09986 3.25385,-3.09986 1.03611,0 1.90103,0.37676 2.46618,1.06177 l -0.89059,0.82206 c -0.40243,-0.46249 -0.90778,-0.7022 -1.50707,-0.7022 -1.12183,0 -1.91823,0.78793 -1.91823,1.91823 0,1.13003 0.7964,1.91796 1.91823,1.91796 0.59955,0 1.10464,-0.23971 1.50707,-0.71067 l 0.89059,0.82179 c -0.56515,0.69348 -1.43007,1.07051 -2.47465,1.07051 -1.85817,2.6e-4 -3.24538,-1.29302 -3.24538,-3.09959 z"
       id="path594-7-4"
       style="fill:#0a4c6a;fill-opacity:1;stroke-width:0.264583" />
    <path
       fill="#4c7189"
       d="m 108.95808,142.90847 c 0,-1.80684 1.38721,-3.09986 3.25385,-3.09986 1.0361,0 1.90129,0.37677 2.46618,1.06178 l -0.89059,0.82206 c -0.40243,-0.46249 -0.90752,-0.70221 -1.5068,-0.70221 -1.12184,0 -1.91823,0.78793 -1.91823,1.91823 0,1.13004 0.79639,1.91797 1.91823,1.91797 0.59954,0 1.10437,-0.23972 1.5068,-0.71067 l 0.89059,0.82179 c -0.56515,0.69374 -1.43008,1.07051 -2.47465,1.07051 -1.85817,2.6e-4 -3.24538,-1.29276 -3.24538,-3.0996 z"
       id="path596-4-2"
       style="fill:#0a4c6a;fill-opacity:1;stroke-width:0.264583" />
    <path
       fill="#99adb7"
       d="m 122.30657,138.21132 0.47096,-1.04457 c 0.50509,0.3683 1.25889,0.62495 1.97803,0.62495 0.82179,0 1.15596,-0.27385 1.15596,-0.64215 0,-1.12183 -3.48509,-0.3511 -3.48509,-2.5773 0,-1.01918 0.8218,-1.8669 2.52624,-1.8669 0.75353,0 1.524,0.17991 2.08042,0.53101 l -0.42783,1.05305 c -0.55668,-0.31671 -1.1303,-0.47096 -1.66132,-0.47096 -0.82206,0 -1.13903,0.30824 -1.13903,0.685 0,1.1049 3.48536,0.34264 3.48536,2.54318 0,1.00198 -0.8308,1.85817 -2.54318,1.85817 -0.95038,5.3e-4 -1.9095,-0.28231 -2.44052,-0.69348 z"
       id="path598-6-0"
       style="fill:#0a4c6a;fill-opacity:1;stroke-width:0.264583" />
    <text
       xml:space="preserve"
       style="font-style:normal;font-variant:normal;font-weight:normal;font-stretch:normal;font-size:14.1111px;line-height:0;font-family:'Century Gothic';-inkscape-font-specification:'Century Gothic';fill:#0a4c6a;fill-opacity:1;stroke-width:0.264583"
       x="105.42851"
       y="171.00906"
       id="text6981-9-4"><tspan
         sodipodi:role="line"
         style="font-style:normal;font-variant:normal;font-weight:normal;font-stretch:normal;font-size:11.2889px;line-height:1.25;font-family:Bahnschrift;-inkscape-font-specification:Bahnschrift;text-align:center;letter-spacing:0.529167px;word-spacing:0.00529167px;text-anchor:middle;fill:#0a4c6a;fill-opacity:1;stroke-width:0.264583"
         x="105.6931"
         y="171.00906"
         id="tspan14495-0">research</tspan></text>
    <text
       xml:space="preserve"
       style="font-style:normal;font-variant:normal;font-weight:normal;font-stretch:normal;font-size:14.1111px;line-height:0;font-family:'Century Gothic';-inkscape-font-specification:'Century Gothic';fill:#0a4c6a;fill-opacity:1;stroke-width:0.264583"
       x="104.90286"
       y="182.36859"
       id="text6981-9-2-3"><tspan
         sodipodi:role="line"
         style="font-style:normal;font-variant:normal;font-weight:normal;font-stretch:normal;font-size:14.1111px;line-height:0.7;font-family:'Bauhaus 93';-inkscape-font-specification:'Bauhaus 93, ';text-align:center;letter-spacing:2.38125px;word-spacing:0.00529167px;text-anchor:middle;fill:#0a4c6a;fill-opacity:1;stroke-width:0.264583"
         x="106.09349"
         y="182.36859"
         id="tspan14495-2-9"
         dy="0.059999999"
         dx="0.050000001">GUIDE</tspan></text>
    <path
       class="st1"
       d="m 87.950751,108.74568 h 0.920053 v 2.55845 h -0.920053 z"
       id="path6-4"
       style="fill:#0a4c6a;fill-opacity:1;stroke-width:0.180927" />
    <path
       class="st1"
       d="m 91.991771,108.74568 h 0.883958 l 0.829844,1.43347 h 0.01809 c -0.03618,-0.21772 -0.07233,-0.43549 -0.07233,-0.65323 v -0.76207 h 0.883987 v 2.54028 h -0.88397 l -0.811793,-1.3427 h -0.01809 c 0.03617,0.16331 0.05416,0.34474 0.05416,0.50805 v 0.83465 h -0.883989 z"
       id="path8-4"
       style="fill:#0a4c6a;fill-opacity:1;stroke-width:0.180927" />
    <path
       class="st1"
       d="m 97.313622,110.39689 0.05419,0.0365 c 0.162354,0.14519 0.360806,0.21774 0.577294,0.2359 0.09021,0 0.234508,-0.0365 0.234508,-0.1452 0,-0.10885 -0.126316,-0.12705 -0.198433,-0.14512 l -0.180405,-0.0365 c -0.360788,-0.0724 -0.667478,-0.27219 -0.667478,-0.68952 0,-0.61693 0.55925,-0.94355 1.100457,-0.94355 0.288632,0 0.559224,0.0724 0.811799,0.21778 l -0.252575,0.65318 c -0.162358,-0.12704 -0.342735,-0.18143 -0.541197,-0.19956 -0.07233,0 -0.198428,0.0365 -0.198428,0.14514 0,0.10891 0.108344,0.10891 0.180401,0.12705 l 0.216489,0.0543 c 0.396862,0.0909 0.685514,0.30849 0.685514,0.74401 0,0.61693 -0.559257,0.92537 -1.100465,0.92537 -0.342745,0 -0.667477,-0.0909 -0.974162,-0.2359 z"
       id="path10-5"
       style="fill:#0a4c6a;fill-opacity:1;stroke-width:0.180927" />
    <path
       class="st1"
       d="m 102.00404,108.74568 h 1.94837 v 0.83467 l -0.50514,-0.018 v 1.76009 h -0.92003 v -1.76009 l -0.50514,0.018 v -0.83467 z"
       id="path12-2"
       style="fill:#0a4c6a;fill-opacity:1;stroke-width:0.180927" />
    <path
       class="st1"
       d="m 107.19958,108.74568 h 0.9201 v 2.55845 h -0.9201 z"
       id="path14-4"
       style="fill:#0a4c6a;fill-opacity:1;stroke-width:0.180927" />
    <path
       class="st1"
       d="m 111.42111,108.74568 h 1.94836 v 0.83467 l -0.50519,-0.018 v 1.76009 h -0.92018 v -1.76009 l -0.50508,0.018 v -0.83467 z"
       id="path16-9"
       style="fill:#0a4c6a;fill-opacity:1;stroke-width:0.180927" />
    <path
       class="st1"
       d="m 118.56499,108.74568 v 1.52419 c 0,0.74395 -0.46912,1.08874 -1.19076,1.08874 -0.72139,0 -1.19049,-0.34479 -1.19049,-1.08874 v -1.52419 h 0.91995 v 1.43347 c 0,0.19962 0,0.38104 0.25265,0.38104 0.25239,0 0.25239,-0.18142 0.25239,-0.38104 v -1.43347 z"
       id="path18-1"
       style="fill:#0a4c6a;fill-opacity:1;stroke-width:0.180927" />
    <path
       class="st1"
       d="m 121.03653,108.74568 h 1.94832 v 0.83467 l -0.50505,-0.018 v 1.76009 h -0.92013 v -1.76009 l -0.50523,0.018 v -0.83467 z"
       id="path20-3"
       style="fill:#0a4c6a;fill-opacity:1;stroke-width:0.180927" />
    <path
       class="st1"
       d="m 126.01565,108.74568 h 1.71383 v 0.70766 h -0.77587 v 0.25401 h 0.72171 v 0.67142 h -0.72171 v 0.25401 h 0.81189 v 0.68953 h -1.74985 z"
       id="path22-7"
       style="fill:#0a4c6a;fill-opacity:1;stroke-width:0.180927" />
    <path
       class="st2"
       d="m 88.888854,97.876791 v 4.608849 c 0,2.26813 -1.425205,3.30238 -3.590005,3.30238 -2.164826,0 -3.589997,-1.03425 -3.589997,-3.30238 v -4.608849 h 2.814273 v 4.336649 c 0,0.61694 0.01809,1.14315 0.775724,1.14315 0.757669,0 0.775743,-0.54433 0.775743,-1.14315 v -4.336649 z"
       id="path24-8"
       style="fill:#1696d2;fill-opacity:1;stroke-width:0.180927" />
    <path
       class="st2"
       d="m 91.829404,97.876791 h 3.409607 c 1.749901,0 3.229189,0.743934 3.229189,2.703619 0,1.1794 -0.450996,1.66932 -1.49734,2.03223 v 0.0545 c 0.180395,0.12707 0.342762,0.29032 0.469037,0.47176 l 1.677763,2.54033 h -3.247253 l -1.226738,-2.50404 h -0.05419 v 2.50404 h -2.760131 z m 2.74211,3.447569 h 0.198425 c 0.469072,0 0.920084,-0.0724 0.920084,-0.65323 0,-0.58064 -0.414945,-0.671348 -0.902019,-0.671348 h -0.21649 z"
       id="path26-9"
       style="fill:#1696d2;fill-opacity:1;stroke-width:0.180927" />
    <path
       class="st2"
       d="m 101.26443,97.876791 h 3.28333 c 1.49727,0 3.03078,0.362917 3.03078,2.159289 0,0.68947 -0.34283,1.36088 -1.01033,1.5786 v 0.0543 c 0.84783,0.3085 1.37115,0.92543 1.37115,1.85081 0,1.59677 -1.4793,2.14113 -2.83233,2.14113 h -3.82453 v -7.784239 z m 2.86847,2.993939 c 0.41486,0 0.86584,-0.0365 0.86584,-0.58063 0,-0.580638 -0.5232,-0.544388 -0.93813,-0.544388 h -0.19839 v 1.125018 z m -0.25266,2.93949 h 0.32476 c 0.46899,0 1.13648,-0.018 1.13648,-0.65323 0,-0.63505 -0.72159,-0.63505 -1.17265,-0.63505 h -0.27049 z"
       id="path28-7"
       style="fill:#1696d2;fill-opacity:1;stroke-width:0.180927" />
    <path
       class="st2"
       d="m 112.52152,105.66103 h -2.97665 l 2.68798,-7.784239 h 3.121 l 2.76019,7.802399 h -2.97671 l -0.25247,-0.97984 h -2.12882 z m 1.85811,-2.81248 -0.32475,-1.37906 c -0.0901,-0.32661 -0.12633,-0.67135 -0.18036,-0.99796 h -0.1082 l -0.50525,2.37702 z"
       id="path30-7"
       style="fill:#1696d2;fill-opacity:1;stroke-width:0.180927" />
    <path
       class="st2"
       d="m 119.97208,97.876791 h 2.70607 l 2.52552,4.318539 h 0.0902 c -0.12646,-0.65324 -0.21646,-1.3246 -0.23447,-1.97782 v -2.340719 h 2.68804 v 7.802399 h -2.68804 l -2.47168,-4.10081 h -0.09 c 0.10807,0.50805 0.16231,1.03426 0.18032,1.56049 v 2.54032 h -2.70605 z"
       id="path32-8"
       style="fill:#1696d2;fill-opacity:1;stroke-width:0.180927" />
    <rect
       x="110.54065"
       y="94.263428"
       class="st3"
       width="0.90733862"
       height="0.79518718"
       id="rect50-5"
       style="fill:#0a4c6a;fill-opacity:1;stroke-width:0.193052" />
    <rect
       x="116.02596"
       y="94.263428"
       class="st3"
       width="0.90733862"
       height="0.79518718"
       id="rect52-2"
       style="fill:#0a4c6a;fill-opacity:1;stroke-width:0.193052" />
    <rect
       x="94.043587"
       y="94.263428"
       class="st3"
       width="0.90733862"
       height="0.79518718"
       id="rect54-1"
       style="fill:#0a4c6a;fill-opacity:1;stroke-width:0.193052" />
    <rect
       x="99.528854"
       y="94.263428"
       class="st3"
       width="0.90733862"
       height="0.79518718"
       id="rect56-3"
       style="fill:#0a4c6a;fill-opacity:1;stroke-width:0.193052" />
    <rect
       x="105.03474"
       y="94.263428"
       class="st3"
       width="0.90733862"
       height="0.79518718"
       id="rect58-6"
       style="fill:#0a4c6a;fill-opacity:1;stroke-width:0.193052" />
    <rect
       x="88.537697"
       y="94.263428"
       class="st3"
       width="0.90733862"
       height="0.79518718"
       id="rect60-5"
       style="fill:#0a4c6a;fill-opacity:1;stroke-width:0.193052" />
    <rect
       x="110.54065"
       y="113.54675"
       class="st3"
       width="0.90733862"
       height="0.79518718"
       id="rect62-2"
       style="fill:#0a4c6a;fill-opacity:1;stroke-width:0.193052" />
    <rect
       x="116.02596"
       y="113.54675"
       class="st3"
       width="0.90733862"
       height="0.79518718"
       id="rect64-4"
       style="fill:#0a4c6a;fill-opacity:1;stroke-width:0.193052" />
    <rect
       x="94.043587"
       y="113.54675"
       class="st3"
       width="0.90733862"
       height="0.79518718"
       id="rect66-9"
       style="fill:#0a4c6a;fill-opacity:1;stroke-width:0.193052" />
    <rect
       x="99.528854"
       y="113.54675"
       class="st3"
       width="0.90733862"
       height="0.79518718"
       id="rect68-6"
       style="fill:#0a4c6a;fill-opacity:1;stroke-width:0.193052" />
    <rect
       x="105.03474"
       y="113.54675"
       class="st3"
       width="0.90733862"
       height="0.79518718"
       id="rect70-8"
       style="fill:#0a4c6a;fill-opacity:1;stroke-width:0.193052" />
    <rect
       x="88.537697"
       y="113.54675"
       class="st3"
       width="0.90733862"
       height="0.79518718"
       id="rect72-4"
       style="fill:#0a4c6a;fill-opacity:1;stroke-width:0.193052" />
    <rect
       x="105.03474"
       y="94.263428"
       class="st3"
       width="0.90733862"
       height="0.79518718"
       id="rect80-9"
       style="fill:#0a4c6a;fill-opacity:1;stroke-width:0.193052" />
    <rect
       x="110.54065"
       y="94.263428"
       class="st3"
       width="0.90733862"
       height="0.79518718"
       id="rect82-7"
       style="fill:#0a4c6a;fill-opacity:1;stroke-width:0.193052" />
    <rect
       x="116.02596"
       y="94.263428"
       class="st3"
       width="0.90733862"
       height="0.79518718"
       id="rect84-5"
       style="fill:#0a4c6a;fill-opacity:1;stroke-width:0.193052" />
    <rect
       x="88.537697"
       y="94.263428"
       class="st3"
       width="0.90733862"
       height="0.79518718"
       id="rect86-3"
       style="fill:#0a4c6a;fill-opacity:1;stroke-width:0.193052" />
    <rect
       x="94.043587"
       y="94.263428"
       class="st3"
       width="0.90733862"
       height="0.79518718"
       id="rect88-1"
       style="fill:#0a4c6a;fill-opacity:1;stroke-width:0.193052" />
    <rect
       x="99.528854"
       y="94.263428"
       class="st3"
       width="0.90733862"
       height="0.79518718"
       id="rect90-2"
       style="fill:#0a4c6a;fill-opacity:1;stroke-width:0.193052" />
    <rect
       x="83.031754"
       y="94.263428"
       class="st3"
       width="0.90733862"
       height="0.79518718"
       id="rect92-6"
       style="fill:#0a4c6a;fill-opacity:1;stroke-width:0.193052" />
    <rect
       x="83.031754"
       y="113.54675"
       class="st3"
       width="0.90733862"
       height="0.79518718"
       id="rect94-5"
       style="fill:#0a4c6a;fill-opacity:1;stroke-width:0.193052" />
    <rect
       x="83.031754"
       y="108.72147"
       class="st3"
       width="0.90733862"
       height="0.79518718"
       id="rect96-2"
       style="fill:#0a4c6a;fill-opacity:1;stroke-width:0.193052" />
    <rect
       x="99.528854"
       y="94.263428"
       class="st3"
       width="0.90733862"
       height="0.79518718"
       id="rect102-2"
       style="fill:#0a4c6a;fill-opacity:1;stroke-width:0.193052" />
    <rect
       x="105.03474"
       y="94.263428"
       class="st3"
       width="0.90733862"
       height="0.79518718"
       id="rect104-2"
       style="fill:#0a4c6a;fill-opacity:1;stroke-width:0.193052" />
    <rect
       x="110.54065"
       y="94.263428"
       class="st3"
       width="0.90733862"
       height="0.79518718"
       id="rect106-5"
       style="fill:#0a4c6a;fill-opacity:1;stroke-width:0.193052" />
    <rect
       x="116.02596"
       y="94.263428"
       class="st3"
       width="0.90733862"
       height="0.79518718"
       id="rect108-8"
       style="fill:#0a4c6a;fill-opacity:1;stroke-width:0.193052" />
    <rect
       x="83.031754"
       y="94.263428"
       class="st3"
       width="0.90733862"
       height="0.79518718"
       id="rect110-7"
       style="fill:#0a4c6a;fill-opacity:1;stroke-width:0.193052" />
    <rect
       x="88.537697"
       y="94.263428"
       class="st3"
       width="0.90733862"
       height="0.79518718"
       id="rect112-9"
       style="fill:#0a4c6a;fill-opacity:1;stroke-width:0.193052" />
    <rect
       x="94.043587"
       y="94.263428"
       class="st3"
       width="0.90733862"
       height="0.79518718"
       id="rect114-3"
       style="fill:#0a4c6a;fill-opacity:1;stroke-width:0.193052" />
    <rect
       x="110.54065"
       y="118.37205"
       class="st3"
       width="0.90733862"
       height="0.79518718"
       id="rect116-5"
       style="fill:#0a4c6a;fill-opacity:1;stroke-width:0.193052" />
    <rect
       x="116.02596"
       y="118.37205"
       class="st3"
       width="0.90733862"
       height="0.79518718"
       id="rect118-3"
       style="fill:#0a4c6a;fill-opacity:1;stroke-width:0.193052" />
    <rect
       x="94.043587"
       y="118.37205"
       class="st3"
       width="0.90733862"
       height="0.79518718"
       id="rect120-5"
       style="fill:#0a4c6a;fill-opacity:1;stroke-width:0.193052" />
    <rect
       x="99.528854"
       y="118.37205"
       class="st3"
       width="0.90733862"
       height="0.79518718"
       id="rect122-5"
       style="fill:#0a4c6a;fill-opacity:1;stroke-width:0.193052" />
    <rect
       x="105.03474"
       y="118.37205"
       class="st3"
       width="0.90733862"
       height="0.79518718"
       id="rect124-0"
       style="fill:#0a4c6a;fill-opacity:1;stroke-width:0.193052" />
    <rect
       x="88.537697"
       y="118.37205"
       class="st3"
       width="0.90733862"
       height="0.79518718"
       id="rect126-1"
       style="fill:#0a4c6a;fill-opacity:1;stroke-width:0.193052" />
    <rect
       x="83.031754"
       y="118.37205"
       class="st3"
       width="0.90733862"
       height="0.79518718"
       id="rect128-5"
       style="fill:#0a4c6a;fill-opacity:1;stroke-width:0.193052" />
    <rect
       x="77.546501"
       y="94.263428"
       class="st3"
       width="0.90733862"
       height="0.79518718"
       id="rect130-8"
       style="fill:#0a4c6a;fill-opacity:1;stroke-width:0.193052" />
    <rect
       x="77.546501"
       y="113.54675"
       class="st3"
       width="0.90733862"
       height="0.79518718"
       id="rect132-7"
       style="fill:#0a4c6a;fill-opacity:1;stroke-width:0.193052" />
    <rect
       x="77.546501"
       y="118.37205"
       class="st3"
       width="0.90733862"
       height="0.79518718"
       id="rect134-5"
       style="fill:#0a4c6a;fill-opacity:1;stroke-width:0.193052" />
    <rect
       x="110.55957"
       y="123.23569"
       class="st3"
       width="0.90733862"
       height="0.79518718"
       id="rect116-5-8"
       style="fill:#0a4c6a;fill-opacity:1;stroke-width:0.193052" />
    <rect
       x="116.04493"
       y="123.23569"
       class="st3"
       width="0.90733862"
       height="0.79518718"
       id="rect118-3-4"
       style="fill:#0a4c6a;fill-opacity:1;stroke-width:0.193052" />
    <rect
       x="94.062477"
       y="123.23569"
       class="st3"
       width="0.90733862"
       height="0.79518718"
       id="rect120-5-3"
       style="fill:#0a4c6a;fill-opacity:1;stroke-width:0.193052" />
    <rect
       x="99.547668"
       y="123.23569"
       class="st3"
       width="0.90733862"
       height="0.79518718"
       id="rect122-5-1"
       style="fill:#0a4c6a;fill-opacity:1;stroke-width:0.193052" />
    <rect
       x="105.05356"
       y="123.23569"
       class="st3"
       width="0.90733862"
       height="0.79518718"
       id="rect124-0-0"
       style="fill:#0a4c6a;fill-opacity:1;stroke-width:0.193052" />
    <rect
       x="88.556526"
       y="123.23569"
       class="st3"
       width="0.90733862"
       height="0.79518718"
       id="rect126-1-8"
       style="fill:#0a4c6a;fill-opacity:1;stroke-width:0.193052" />
    <rect
       x="83.050568"
       y="123.23569"
       class="st3"
       width="0.90733862"
       height="0.79518718"
       id="rect128-5-4"
       style="fill:#0a4c6a;fill-opacity:1;stroke-width:0.193052" />
    <rect
       x="77.565292"
       y="123.23569"
       class="st3"
       width="0.90733862"
       height="0.79518718"
       id="rect134-5-5"
       style="fill:#0a4c6a;fill-opacity:1;stroke-width:0.193052" />
    <rect
       x="77.546501"
       y="108.72147"
       class="st3"
       width="0.90733862"
       height="0.79518718"
       id="rect136-1"
       style="fill:#0a4c6a;fill-opacity:1;stroke-width:0.193052" />
    <rect
       x="77.546501"
       y="103.91409"
       class="st3"
       width="0.90733862"
       height="0.79518718"
       id="rect138-1"
       style="fill:#0a4c6a;fill-opacity:1;stroke-width:0.193052" />
    <rect
       x="77.546501"
       y="99.088707"
       class="st3"
       width="0.90733862"
       height="0.79518718"
       id="rect140-6"
       style="fill:#0a4c6a;fill-opacity:1;stroke-width:0.193052" />
    <rect
       x="110.54065"
       y="89.456184"
       class="st3"
       width="0.90733862"
       height="0.79518718"
       id="rect144-0"
       style="fill:#0a4c6a;fill-opacity:1;stroke-width:0.193052" />
    <rect
       x="116.02596"
       y="89.456184"
       class="st3"
       width="0.90733862"
       height="0.79518718"
       id="rect146-2"
       style="fill:#0a4c6a;fill-opacity:1;stroke-width:0.193052" />
    <rect
       x="94.043587"
       y="89.456184"
       class="st3"
       width="0.90733862"
       height="0.79518718"
       id="rect148-3"
       style="fill:#0a4c6a;fill-opacity:1;stroke-width:0.193052" />
    <rect
       x="99.528854"
       y="89.456184"
       class="st3"
       width="0.90733862"
       height="0.79518718"
       id="rect150-6"
       style="fill:#0a4c6a;fill-opacity:1;stroke-width:0.193052" />
    <rect
       x="105.03474"
       y="89.456184"
       class="st3"
       width="0.90733862"
       height="0.79518718"
       id="rect152-6"
       style="fill:#0a4c6a;fill-opacity:1;stroke-width:0.193052" />
    <rect
       x="88.537697"
       y="89.456184"
       class="st3"
       width="0.90733862"
       height="0.79518718"
       id="rect154-6"
       style="fill:#0a4c6a;fill-opacity:1;stroke-width:0.193052" />
    <rect
       x="83.031754"
       y="89.456184"
       class="st3"
       width="0.90733862"
       height="0.79518718"
       id="rect156-1"
       style="fill:#0a4c6a;fill-opacity:1;stroke-width:0.193052" />
    <rect
       x="77.546501"
       y="89.456184"
       class="st3"
       width="0.90733862"
       height="0.79518718"
       id="rect158-1"
       style="fill:#0a4c6a;fill-opacity:1;stroke-width:0.193052" />
  </g>
</svg>
