<?xml version="1.0" encoding="UTF-8" standalone="no"?>
<svg
   version="1.1"
   id="Layer_1"
   x="0px"
   y="0px"
   width="180px"
   height="107px"
   viewBox="60 12 260 210"
   style="enable-background:new 0 0 400 240;"
   xml:space="preserve"
   sodipodi:docname="ui-logo-rgb-tagline.svg"
   inkscape:version="1.2.2 (732a01da63, 2022-12-09)"
   xmlns:inkscape="http://www.inkscape.org/namespaces/inkscape"
   xmlns:sodipodi="http://sodipodi.sourceforge.net/DTD/sodipodi-0.dtd"
   xmlns="http://www.w3.org/2000/svg"
   xmlns:svg="http://www.w3.org/2000/svg"><defs
   id="defs163" /><sodipodi:namedview
   id="namedview161"
   pagecolor="#ffffff"
   bordercolor="#000000"
   borderopacity="0.25"
   inkscape:showpageshadow="2"
   inkscape:pageopacity="0.0"
   inkscape:pagecheckerboard="0"
   inkscape:deskcolor="#d1d1d1"
   showgrid="false"
   inkscape:zoom="4.9261772"
   inkscape:cx="90.84123"
   inkscape:cy="41.614418"
   inkscape:window-width="1920"
   inkscape:window-height="1009"
   inkscape:window-x="-8"
   inkscape:window-y="-8"
   inkscape:window-maximized="1"
   inkscape:current-layer="Layer_1" />
<style
   type="text/css"
   id="style2">
	.st0{fill:none;}
	.st1{fill:#231F20;}
	.st2{fill:#1696D2;}
	.st3{fill:#9D9FA2;}
</style>
	
	<path
   class="st1"
   d="M133.6,127.9h5.1V142h-5.1V127.9z"
   id="path6" />
	<path
   class="st1"
   d="M156,127.9h4.9l4.6,7.9h0.1c-0.2-1.2-0.4-2.4-0.4-3.6v-4.2h4.9V142h-4.9l-4.5-7.4h-0.1c0.2,0.9,0.3,1.9,0.3,2.8  v4.6H156V127.9z"
   id="path8" />
	<path
   class="st1"
   d="M185.5,137l0.3,0.2c0.9,0.8,2,1.2,3.2,1.3c0.5,0,1.3-0.2,1.3-0.8s-0.7-0.7-1.1-0.8l-1-0.2  c-2-0.4-3.7-1.5-3.7-3.8c0-3.4,3.1-5.2,6.1-5.2c1.6,0,3.1,0.4,4.5,1.2l-1.4,3.6c-0.9-0.7-1.9-1-3-1.1c-0.4,0-1.1,0.2-1.1,0.8  s0.6,0.6,1,0.7l1.2,0.3c2.2,0.5,3.8,1.7,3.8,4.1c0,3.4-3.1,5.1-6.1,5.1c-1.9,0-3.7-0.5-5.4-1.3L185.5,137z"
   id="path10" />
	<path
   class="st1"
   d="M211.5,127.9h10.8v4.6l-2.8-0.1v9.7h-5.1v-9.7l-2.8,0.1V127.9z"
   id="path12" />
	<path
   class="st1"
   d="M240.3,127.9h5.1V142h-5.1V127.9z"
   id="path14" />
	<path
   class="st1"
   d="M263.7,127.9h10.8v4.6l-2.8-0.1v9.7h-5.1v-9.7l-2.8,0.1V127.9z"
   id="path16" />
	<path
   class="st1"
   d="M303.3,127.9v8.4c0,4.1-2.6,6-6.6,6s-6.6-1.9-6.6-6v-8.4h5.1v7.9c0,1.1,0,2.1,1.4,2.1s1.4-1,1.4-2.1v-7.9  L303.3,127.9z"
   id="path18" />
	<path
   class="st1"
   d="M317,127.9h10.8v4.6l-2.8-0.1v9.7h-5.1v-9.7l-2.8,0.1V127.9z"
   id="path20" />
	<path
   class="st1"
   d="M344.6,127.9h9.5v3.9h-4.3v1.4h4v3.7h-4v1.4h4.5v3.8h-9.7V127.9z"
   id="path22" />
	<path
   class="st2"
   d="M138.8,68v25.4c0,12.5-7.9,18.2-19.9,18.2s-19.9-5.7-19.9-18.2V68h15.6v23.9c0,3.4,0.1,6.3,4.3,6.3  s4.3-3,4.3-6.3V68H138.8z"
   id="path24" />
	<path
   class="st2"
   d="M155.1,68h18.9c9.7,0,17.9,4.1,17.9,14.9c0,6.5-2.5,9.2-8.3,11.2v0.3c1,0.7,1.9,1.6,2.6,2.6l9.3,14h-18  l-6.8-13.8h-0.3V111h-15.3V68z M170.3,87h1.1c2.6,0,5.1-0.4,5.1-3.6s-2.3-3.7-5-3.7h-1.2L170.3,87z"
   id="path26" />
	<path
   class="st2"
   d="M207.4,68h18.2c8.3,0,16.8,2,16.8,11.9c0,3.8-1.9,7.5-5.6,8.7v0.3c4.7,1.7,7.6,5.1,7.6,10.2  c0,8.8-8.2,11.8-15.7,11.8h-21.2V68z M223.3,84.5c2.3,0,4.8-0.2,4.8-3.2c0-3.2-2.9-3-5.2-3h-1.1v6.2L223.3,84.5z M221.9,100.7h1.8  c2.6,0,6.3-0.1,6.3-3.6s-4-3.5-6.5-3.5h-1.5L221.9,100.7z"
   id="path28" />
	<path
   class="st2"
   d="M269.8,110.9h-16.5L268.2,68h17.3l15.3,43h-16.5l-1.4-5.4h-11.8L269.8,110.9z M280.1,95.4l-1.8-7.6  c-0.5-1.8-0.7-3.7-1-5.5h-0.6l-2.8,13.1H280.1z"
   id="path30" />
	<path
   class="st2"
   d="M311.1,68h15l14,23.8h0.5c-0.7-3.6-1.2-7.3-1.3-10.9V68h14.9v43h-14.9l-13.7-22.6h-0.5c0.6,2.8,0.9,5.7,1,8.6  v14h-15V68z"
   id="path32" />
	<rect
   x="213.5"
   y="213.1"
   class="st3"
   width="4.4"
   height="4.4"
   id="rect34" />
	<rect
   x="186.9"
   y="213.1"
   class="st3"
   width="4.4"
   height="4.4"
   id="rect36" />
	<rect
   x="106.9"
   y="213.1"
   class="st3"
   width="4.4"
   height="4.4"
   id="rect38" />
	<rect
   x="133.5"
   y="213.1"
   class="st3"
   width="4.4"
   height="4.4"
   id="rect40" />
	<rect
   x="160.2"
   y="213.1"
   class="st3"
   width="4.4"
   height="4.4"
   id="rect42" />
	<rect
   x="80.2"
   y="213.1"
   class="st3"
   width="4.4"
   height="4.4"
   id="rect44" />
	<rect
   x="53.5"
   y="213.1"
   class="st3"
   width="4.4"
   height="4.4"
   id="rect46" />
	<rect
   x="26.9"
   y="213.1"
   class="st3"
   width="4.4"
   height="4.4"
   id="rect48" />
	<rect
   x="186.9"
   y="53.1"
   class="st3"
   width="4.4"
   height="4.4"
   id="rect50" />
	<rect
   x="213.5"
   y="53.1"
   class="st3"
   width="4.4"
   height="4.4"
   id="rect52" />
	<rect
   x="106.9"
   y="53.1"
   class="st3"
   width="4.4"
   height="4.4"
   id="rect54" />
	<rect
   x="133.5"
   y="53.1"
   class="st3"
   width="4.4"
   height="4.4"
   id="rect56" />
	<rect
   x="160.2"
   y="53.1"
   class="st3"
   width="4.4"
   height="4.4"
   id="rect58" />
	<rect
   x="80.2"
   y="53.1"
   class="st3"
   width="4.4"
   height="4.4"
   id="rect60" />
	<rect
   x="186.9"
   y="159.8"
   class="st3"
   width="4.4"
   height="4.4"
   id="rect62" />
	<rect
   x="213.5"
   y="159.8"
   class="st3"
   width="4.4"
   height="4.4"
   id="rect64" />
	<rect
   x="106.9"
   y="159.8"
   class="st3"
   width="4.4"
   height="4.4"
   id="rect66" />
	<rect
   x="133.5"
   y="159.8"
   class="st3"
   width="4.4"
   height="4.4"
   id="rect68" />
	<rect
   x="160.2"
   y="159.8"
   class="st3"
   width="4.4"
   height="4.4"
   id="rect70" />
	<rect
   x="80.2"
   y="159.8"
   class="st3"
   width="4.4"
   height="4.4"
   id="rect72" />
	<rect
   x="80.2"
   y="133.1"
   class="st3"
   width="4.4"
   height="4.4"
   id="rect74" />
	<rect
   x="80.2"
   y="106.5"
   class="st3"
   width="4.4"
   height="4.4"
   id="rect76" />
	<rect
   x="80.2"
   y="79.8"
   class="st3"
   width="4.4"
   height="4.4"
   id="rect78" />
	<rect
   x="160.2"
   y="53.1"
   class="st3"
   width="4.4"
   height="4.4"
   id="rect80" />
	<rect
   x="186.9"
   y="53.1"
   class="st3"
   width="4.4"
   height="4.4"
   id="rect82" />
	<rect
   x="213.5"
   y="53.1"
   class="st3"
   width="4.4"
   height="4.4"
   id="rect84" />
	<rect
   x="80.2"
   y="53.1"
   class="st3"
   width="4.4"
   height="4.4"
   id="rect86" />
	<rect
   x="106.9"
   y="53.1"
   class="st3"
   width="4.4"
   height="4.4"
   id="rect88" />
	<rect
   x="133.5"
   y="53.1"
   class="st3"
   width="4.4"
   height="4.4"
   id="rect90" />
	<rect
   x="53.5"
   y="53.1"
   class="st3"
   width="4.4"
   height="4.4"
   id="rect92" />
	<rect
   x="53.5"
   y="159.8"
   class="st3"
   width="4.4"
   height="4.4"
   id="rect94" />
	<rect
   x="53.5"
   y="133.1"
   class="st3"
   width="4.4"
   height="4.4"
   id="rect96" />
	<rect
   x="53.5"
   y="106.5"
   class="st3"
   width="4.4"
   height="4.4"
   id="rect98" />
	<rect
   x="53.5"
   y="79.8"
   class="st3"
   width="4.4"
   height="4.4"
   id="rect100" />
	<rect
   x="133.5"
   y="53.1"
   class="st3"
   width="4.4"
   height="4.4"
   id="rect102" />
	<rect
   x="160.2"
   y="53.1"
   class="st3"
   width="4.4"
   height="4.4"
   id="rect104" />
	<rect
   x="186.9"
   y="53.1"
   class="st3"
   width="4.4"
   height="4.4"
   id="rect106" />
	<rect
   x="213.5"
   y="53.1"
   class="st3"
   width="4.4"
   height="4.4"
   id="rect108" />
	<rect
   x="53.5"
   y="53.1"
   class="st3"
   width="4.4"
   height="4.4"
   id="rect110" />
	<rect
   x="80.2"
   y="53.1"
   class="st3"
   width="4.4"
   height="4.4"
   id="rect112" />
	<rect
   x="106.9"
   y="53.1"
   class="st3"
   width="4.4"
   height="4.4"
   id="rect114" />
	<rect
   x="186.9"
   y="186.5"
   class="st3"
   width="4.4"
   height="4.4"
   id="rect116" />
	<rect
   x="213.5"
   y="186.5"
   class="st3"
   width="4.4"
   height="4.4"
   id="rect118" />
	<rect
   x="106.9"
   y="186.5"
   class="st3"
   width="4.4"
   height="4.4"
   id="rect120" />
	<rect
   x="133.5"
   y="186.5"
   class="st3"
   width="4.4"
   height="4.4"
   id="rect122" />
	<rect
   x="160.2"
   y="186.5"
   class="st3"
   width="4.4"
   height="4.4"
   id="rect124" />
	<rect
   x="80.2"
   y="186.5"
   class="st3"
   width="4.4"
   height="4.4"
   id="rect126" />
	<rect
   x="53.5"
   y="186.5"
   class="st3"
   width="4.4"
   height="4.4"
   id="rect128" />
	<rect
   x="26.9"
   y="53.1"
   class="st3"
   width="4.4"
   height="4.4"
   id="rect130" />
	<rect
   x="26.9"
   y="159.8"
   class="st3"
   width="4.4"
   height="4.4"
   id="rect132" />
	<rect
   x="26.9"
   y="186.5"
   class="st3"
   width="4.4"
   height="4.4"
   id="rect134" />
	<rect
   x="26.9"
   y="133.1"
   class="st3"
   width="4.4"
   height="4.4"
   id="rect136" />
	<rect
   x="26.9"
   y="106.5"
   class="st3"
   width="4.4"
   height="4.4"
   id="rect138" />
	<rect
   x="26.9"
   y="79.8"
   class="st3"
   width="4.4"
   height="4.4"
   id="rect140" />
	<rect
   x="106.9"
   y="133.1"
   class="st3"
   width="4.4"
   height="4.4"
   id="rect142" />
	<rect
   x="186.9"
   y="26.5"
   class="st3"
   width="4.4"
   height="4.4"
   id="rect144" />
	<rect
   x="213.5"
   y="26.5"
   class="st3"
   width="4.4"
   height="4.4"
   id="rect146" />
	<rect
   x="106.9"
   y="26.5"
   class="st3"
   width="4.4"
   height="4.4"
   id="rect148" />
	<rect
   x="133.5"
   y="26.5"
   class="st3"
   width="4.4"
   height="4.4"
   id="rect150" />
	<rect
   x="160.2"
   y="26.5"
   class="st3"
   width="4.4"
   height="4.4"
   id="rect152" />
	<rect
   x="80.2"
   y="26.5"
   class="st3"
   width="4.4"
   height="4.4"
   id="rect154" />
	<rect
   x="53.5"
   y="26.5"
   class="st3"
   width="4.4"
   height="4.4"
   id="rect156" />
	<rect
   x="26.9"
   y="26.5"
   class="st3"
   width="4.4"
   height="4.4"
   id="rect158" />
</svg>
